<svg xmlns="http://www.w3.org/2000/svg" xmlns:svg="http://www.w3.org/2000/svg" id="svg2" width="37.5" height="37.5" version="1.1" xml:space="preserve"><metadata id="metadata8"/><defs id="defs6"><clipPath id="clipPath16"><path id="path18" d="M 0,30 30,30 30,0 0,0 0,30 z"/></clipPath></defs><g id="g10" transform="matrix(1.25,0,0,-1.25,0,37.5)"><g id="g12"><g id="g14" clip-path="url(#clipPath16)"><g id="g20" transform="translate(3.3721,2.2388)"><path id="path22" d="m 0,0 c 0,0 -2.753,0.017 1.621,0.017 6.605,0 3.471,13.167 6.754,13.167 2.5,0 0.241,-8.335 4.151,-8.335 1.605,0 1.861,3.083 2.022,7.588 0.172,4.828 0.62,13.33 2.663,13.33 3.536,0 0.16,-25.673 3.939,-25.714 3.381,-0.036 0,0 4.308,-0.036 4.24,-0.035 -21.91,-0.006 -27.167,-0.001 -0.583,0.001 1.084,-0.001 1.084,-0.001" style="fill:#c1343e;fill-opacity:1;fill-rule:nonzero;stroke:#000;stroke-width:1;stroke-linecap:butt;stroke-linejoin:miter;stroke-miterlimit:10;stroke-opacity:1;stroke-dasharray:none"/></g></g></g></g></svg>