<svg xmlns="http://www.w3.org/2000/svg" xmlns:svg="http://www.w3.org/2000/svg" id="svg2" width="37.5" height="37.5" version="1.1" xml:space="preserve"><metadata id="metadata8"/><defs id="defs6"><clipPath id="clipPath16"><path id="path18" d="M 0,30 30,30 30,0 0,0 0,30 z"/></clipPath><clipPath id="clipPath24"><path id="path26" d="m 0,30 29.999,0 0,-30 L 0,0 0,30 z"/></clipPath></defs><g id="g10" transform="matrix(1.25,0,0,-1.25,0,37.5)"><g id="g12"><g id="g14" clip-path="url(#clipPath16)"><g id="g20"><g id="g28"><g id="g30" clip-path="url(#clipPath24)"><g id="g32" transform="translate(15.6543,6)"><path id="path34" d="m 0,0 c 4.929,0 8.929,4 8.929,8.929 0,4.928 -4,8.928 -8.929,8.928 -4.928,0 -8.928,-4 -8.928,-8.928 C -8.928,4 -4.928,0 0,0 m 14.345,-6 -29.999,0 0,30 29.999,0 0,-30 z" style="fill:#ba3125;fill-opacity:1;fill-rule:nonzero;stroke:none"/></g></g></g></g><g id="g36" transform="translate(24.583,14.9287)"><path id="path38" d="m 0,0 c 0,-4.929 -4,-8.929 -8.929,-8.929 -4.927,0 -8.927,4 -8.927,8.929 0,4.928 4,8.928 8.927,8.928 C -4,8.928 0,4.928 0,0 z" style="fill:none;stroke:#493830;stroke-width:1;stroke-linecap:butt;stroke-linejoin:miter;stroke-miterlimit:4;stroke-opacity:1;stroke-dasharray:none"/></g></g></g></g></svg>