<svg xmlns="http://www.w3.org/2000/svg" xmlns:svg="http://www.w3.org/2000/svg" id="svg2" width="37.5" height="37.5" version="1.1" xml:space="preserve"><metadata id="metadata8"/><defs id="defs6"><clipPath id="clipPath16"><path id="path18" d="M 0,30 30,30 30,0 0,0 0,30 z"/></clipPath><clipPath id="clipPath32"><path id="path34" d="m 0.456055,28.1484 29.087845,0 0,-27.0859 -29.087845,0 0,27.0859 z"/></clipPath></defs><g id="g10" transform="matrix(1.25,0,0,-1.25,0,37.5)"><g id="g12"><g id="g14" clip-path="url(#clipPath16)"><g id="g20" transform="translate(9.2461,28.4375)"><path id="path22" d="m 0,0 c 3.26,0 6.66,-1.586 9.09,-4.251 0.83,-0.908 1.51,-1.892 2.03,-2.914 0.42,-0.832 0.73,-1.672 0.94,-2.523 0.81,-3.314 0,-6.629 -2.48,-8.693 -1.49,-1.242 -3.39,-1.892 -5.5,-1.892 -0.35,0 -0.71,0.019 -1.07,0.058 -0.51,0.688 -0.92,1.413 -1.23,2.168 0.76,-0.21 1.54,-0.315 2.3,-0.315 1.62,0 3.07,0.487 4.18,1.424 2.25,1.872 2.68,5.139 1.39,8.235 -0.31,0.735 -0.72,1.471 -1.23,2.168 -0.25,0.354 -0.53,0.688 -0.83,1.023 -2.06,2.254 -4.9,3.601 -7.59,3.601 -1.62,0 -3.07,-0.487 -4.18,-1.423 -1.45,-1.204 -2.2,-3.038 -2.1,-5.159 0.1,-2.197 1.08,-4.424 2.77,-6.267 0.84,-0.927 1.82,-1.692 2.87,-2.283 0.21,-0.87 0.53,-1.72 0.95,-2.542 -1.97,0.698 -3.83,1.93 -5.33,3.564 -1.98,2.168 -3.14,4.814 -3.26,7.451 -0.12,2.704 0.87,5.083 2.78,6.678 C -4.01,-0.65 -2.11,0 0,0" style="fill:#aaacae;fill-opacity:1;fill-rule:nonzero;stroke:#000;stroke-width:1;stroke-linecap:butt;stroke-linejoin:miter;stroke-miterlimit:4;stroke-opacity:1;stroke-dasharray:none"/></g><g id="g24" transform="translate(20.4932,21.0137)"><path id="path26" d="m 0,0 c -0.041,0.086 -0.083,0.173 -0.127,0.259 1.97,-0.698 3.83,-1.93 5.33,-3.564 4.15,-4.548 4.369,-10.882 0.48,-14.13 -1.48,-1.241 -3.39,-1.891 -5.5,-1.891 -3.26,0 -6.66,1.586 -9.09,4.251 -0.82,0.908 -1.5,1.882 -2.03,2.914 -0.42,0.822 -0.74,1.672 -0.95,2.541 -0.16,0.66 -0.26,1.328 -0.29,1.997 -0.12,2.704 0.87,5.082 2.79,6.678 1.48,1.242 3.38,1.892 5.49,1.892 0.35,0 0.71,-0.019 1.07,-0.058 0.51,-0.697 0.92,-1.433 1.23,-2.168 -0.76,0.21 -1.54,0.315 -2.3,0.315 -1.62,0 -3.07,-0.488 -4.18,-1.424 -1.45,-1.203 -2.19,-3.038 -2.1,-5.158 0.05,-1.033 0.29,-2.074 0.71,-3.077 0.31,-0.755 0.72,-1.481 1.23,-2.169 0.25,-0.353 0.53,-0.687 0.83,-1.022 2.06,-2.254 4.9,-3.602 7.59,-3.602 1.62,0 3.07,0.488 4.18,1.424 3.06,2.551 2.76,7.681 -0.67,11.436 -0.85,0.927 -1.83,1.701 -2.88,2.292 C 0.625,-1.501 0.356,-0.747 0,0" style="fill:#aaacae;fill-opacity:1;fill-rule:nonzero;stroke:#000;stroke-width:1;stroke-linecap:butt;stroke-linejoin:miter;stroke-miterlimit:4;stroke-opacity:1;stroke-dasharray:none"/></g><g id="g28"><g id="g36"><g id="g38" clip-path="url(#clipPath32)" style="opacity:.69999701"><g id="g40" transform="translate(23.5996,1.5625)"><path id="path42" d="m 0,0 -4.691,5.767 c -1.887,2.207 -3.019,3.638 -4.151,5.148 l -0.108,0 C -9.974,9.405 -11.052,8.011 -12.886,5.728 L -17.252,0 l -5.392,0 11.106,13.198 -10.674,12.888 5.445,0 4.798,-6.115 c 1.348,-1.704 2.372,-3.018 3.343,-4.411 l 0.161,0 c 1.025,1.547 1.942,2.747 3.289,4.411 l 4.906,6.115 5.445,0 L -5.877,13.391 5.444,0 0,0 z" style="fill:#ba3125;fill-opacity:1;fill-rule:nonzero;stroke:none"/></g><g id="g44" transform="translate(23.5996,1.5625)"><path id="path46" d="m 0,0 -4.691,5.767 c -1.887,2.207 -3.019,3.638 -4.151,5.148 l -0.108,0 C -9.974,9.405 -11.052,8.011 -12.886,5.728 L -17.252,0 l -5.392,0 11.106,13.198 -10.674,12.888 5.445,0 4.798,-6.115 c 1.348,-1.704 2.372,-3.018 3.343,-4.411 l 0.161,0 c 1.025,1.547 1.942,2.747 3.289,4.411 l 4.906,6.115 5.445,0 L -5.877,13.391 5.444,0 0,0 z" style="fill:none;stroke:#000;stroke-width:1;stroke-linecap:round;stroke-linejoin:round;stroke-miterlimit:4;stroke-opacity:1;stroke-dasharray:none"/></g></g></g></g></g></g></g></svg>