<svg xmlns="http://www.w3.org/2000/svg" xmlns:svg="http://www.w3.org/2000/svg" id="svg2" width="37.5" height="37.5" version="1.1" xml:space="preserve"><metadata id="metadata8"/><defs id="defs6"><linearGradient id="linearGradient24" x1="0" x2="1" y1="0" y2="0" gradientTransform="matrix(16.832871,-9.4996185,-9.4996185,-16.832871,6.4394531,20.069336)" gradientUnits="userSpaceOnUse" spreadMethod="pad"><stop id="stop26" offset="0" style="stop-color:#dfe2f2;stop-opacity:1"/><stop id="stop28" offset=".908" style="stop-color:#00b0f0;stop-opacity:1"/><stop id="stop30" offset="1" style="stop-color:#00b0f0;stop-opacity:1"/></linearGradient><clipPath id="clipPath40"><path id="path42" d="M 0,30 30,30 30,0 0,0 0,30 z"/></clipPath><clipPath id="clipPath56"><path id="path58" d="M 0,30 30,30 30,0 0,0 0,30 z"/></clipPath></defs><g id="g10" transform="matrix(1.25,0,0,-1.25,0,37.5)"><g id="g12"><g id="g14"><g id="g20"><g id="g22"><path id="path32" d="m 26.083,8.321 -22.166,0 0,13.833 22.166,0 0,-13.833 z" style="fill:url(#linearGradient24);stroke:none"/></g></g></g></g><path id="path34" d="m 26.083,8.321 -22.166,0 0,13.833 22.166,0 0,-13.833 z" style="fill:none;stroke:#3c4694;stroke-width:1;stroke-linecap:round;stroke-linejoin:bevel;stroke-miterlimit:10;stroke-opacity:1;stroke-dasharray:none"/><g id="g36"><g id="g38" clip-path="url(#clipPath40)"><g id="g44" transform="translate(18.2949,13.9258)"><path id="path46" d="M 0,0 z" style="fill:#bcd6f0;fill-opacity:1;fill-rule:nonzero;stroke:none"/></g></g></g><g id="g48" transform="translate(18.2949,13.9258)"><path id="path50" d="M 0,0 0,0 z" style="fill:none;stroke:#3c4694;stroke-width:1;stroke-linecap:butt;stroke-linejoin:miter;stroke-miterlimit:10;stroke-opacity:1;stroke-dasharray:none"/></g><g id="g52"><g id="g54" clip-path="url(#clipPath56)"><g id="g60" transform="translate(5.25,3.3447)"><path id="path62" d="M 0,0 C 1.935,0 1.935,3 0,3 -1.935,3 -1.935,0 0,0" style="fill:#737577;fill-opacity:1;fill-rule:nonzero;stroke:none"/></g><g id="g64" transform="translate(6.5703,12.5918)"><path id="path66" d="M 0,0 C 1.935,0 1.935,3 0,3 -1.935,3 -1.935,0 0,0" style="fill:#ba3125;fill-opacity:1;fill-rule:nonzero;stroke:none"/></g><g id="g68" transform="translate(11.8545,8.958)"><path id="path70" d="M 0,0 C 1.935,0 1.935,3 0,3 -1.935,3 -1.935,0 0,0" style="fill:#ba3125;fill-opacity:1;fill-rule:nonzero;stroke:none"/></g><g id="g72" transform="translate(12.3506,18.5361)"><path id="path74" d="M 0,0 C 1.935,0 1.935,3 0,3 -1.935,3 -1.935,0 0,0" style="fill:#ba3125;fill-opacity:1;fill-rule:nonzero;stroke:none"/></g><g id="g76" transform="translate(18.2949,18.042)"><path id="path78" d="M 0,0 C 1.935,0 1.935,3 0,3 -1.935,3 -1.935,0 0,0" style="fill:#ba3125;fill-opacity:1;fill-rule:nonzero;stroke:none"/></g><g id="g80" transform="translate(18.2949,12.4258)"><path id="path82" d="M 0,0 C 1.935,0 1.935,3 0,3 -1.935,3 -1.935,0 0,0" style="fill:#ba3125;fill-opacity:1;fill-rule:nonzero;stroke:none"/></g><g id="g84" transform="translate(16.1484,23.6553)"><path id="path86" d="M 0,0 C 1.935,0 1.935,3 0,3 -1.935,3 -1.935,0 0,0" style="fill:#737577;fill-opacity:1;fill-rule:nonzero;stroke:none"/></g><g id="g88" transform="translate(22.7539,22.583)"><path id="path90" d="M 0,0 C 1.935,0 1.935,3 0,3 -1.935,3 -1.935,0 0,0" style="fill:#737577;fill-opacity:1;fill-rule:nonzero;stroke:none"/></g><g id="g92" transform="translate(22.7539,16.2246)"><path id="path94" d="M 0,0 C 1.935,0 1.935,3 0,3 -1.935,3 -1.935,0 0,0" style="fill:#ba3125;fill-opacity:1;fill-rule:nonzero;stroke:none"/></g></g></g></g></svg>