<svg xmlns="http://www.w3.org/2000/svg" xmlns:svg="http://www.w3.org/2000/svg" id="svg2" width="37.5" height="37.5" version="1.1" xml:space="preserve"><metadata id="metadata8"/><defs id="defs6"><clipPath id="clipPath16"><path id="path18" d="M 0,30 30,30 30,0 0,0 0,30 z"/></clipPath><clipPath id="clipPath24"><path id="path26" d="m 11.6294,28.3135 7.1143,0 0,-11.3565 -7.1143,0 0,11.3565 z"/></clipPath><clipPath id="clipPath40"><path id="path42" d="m 10.6714,29.2026 9.0029,0 0,-12.7456 -9.0029,0 0,12.7456 z"/></clipPath><clipPath id="clipPath56"><path id="path58" d="m 15.2915,18.3281 13.4775,0 0,-6.9687 -13.4775,0 0,6.9687 z"/></clipPath><clipPath id="clipPath72"><path id="path74" d="m 14.7915,19.2861 14.8667,0 0,-8.8579 -14.8667,0 0,8.8579 z"/></clipPath><clipPath id="clipPath88"><path id="path90" d="m 11.5376,13.1357 7.2549,0 0,-11.44918 -7.2549,0 0,11.44918 z"/></clipPath><clipPath id="clipPath104"><path id="path106" d="m 10.6069,13.6357 9.1436,0 0,-12.838825 -9.1436,0 0,12.838825 z"/></clipPath><clipPath id="clipPath120"><path id="path122" d="m 1.23096,18.5361 13.39164,0 0,-7.1855 -13.39164,0 0,7.1855 z"/></clipPath><clipPath id="clipPath136"><path id="path138" d="m 0.341797,19.4668 14.780803,0 0,-9.0737 -14.780803,0 0,9.0737 z"/></clipPath></defs><g id="g10" transform="matrix(1.25,0,0,-1.25,0,37.5)"><g id="g12"><g id="g14" clip-path="url(#clipPath16)"><g id="g20"><g id="g28"><g style="opacity:.99215698" id="g30" clip-path="url(#clipPath24)"><g id="g32" transform="translate(15.1782,28.3135)"><path style="fill:#2d6683;fill-opacity:1;fill-rule:nonzero;stroke:none" id="path34" d="m 0,0 3.565,-5.164 -2.034,-0.07 -0.037,-6.122 -2.989,0 -0.036,6.122 L -3.549,-5.302 0,0 z"/></g></g></g></g><g id="g36"><g id="g44"><g style="opacity:.99000501" id="g46" clip-path="url(#clipPath40)"><g id="g48" transform="translate(15.1782,28.3135)"><path style="fill:none;stroke:#2d6683;stroke-width:1;stroke-linecap:butt;stroke-linejoin:miter;stroke-miterlimit:4;stroke-opacity:1;stroke-dasharray:none" id="path50" d="m 0,0 3.565,-5.164 -2.034,-0.07 -0.037,-6.122 -2.989,0 -0.036,6.122 L -3.549,-5.302 0,0 z"/></g></g></g></g><g id="g84"><g id="g92"><g style="opacity:.99215698" id="g94" clip-path="url(#clipPath88)"><g id="g96" transform="translate(15.1733,1.6865)"><path style="fill:#2d6683;fill-opacity:1;fill-rule:nonzero;stroke:none" id="path98" d="m 0,0 -3.636,5.267 2.075,0.071 0.038,6.111 3.047,0 L 1.563,5.338 3.619,5.407 0,0 z"/></g></g></g></g><g id="g100"><g id="g108"><g style="opacity:.99000501" id="g110" clip-path="url(#clipPath104)"><g id="g112" transform="translate(15.1733,1.6865)"><path style="fill:none;stroke:#2d6683;stroke-width:1;stroke-linecap:butt;stroke-linejoin:miter;stroke-miterlimit:4;stroke-opacity:1;stroke-dasharray:none" id="path114" d="m 0,0 -3.636,5.267 2.075,0.071 0.038,6.111 3.047,0 L 1.563,5.338 3.619,5.407 0,0 z"/></g></g></g></g></g></g></g><rect id="rect84" width="5" height="5.357" x="16.48" y="16.02" style="fill:#2d6683;fill-opacity:.992157"/></svg>