<svg xmlns="http://www.w3.org/2000/svg" xmlns:svg="http://www.w3.org/2000/svg" id="svg2" width="37.5" height="37.5" version="1.1" xml:space="preserve"><metadata id="metadata8"/><defs id="defs6"><clipPath id="clipPath16"><path id="path18" d="M 0,30 30,30 30,0 0,0 0,30 z"/></clipPath></defs><g id="g10" transform="matrix(1.25,0,0,-1.25,0,37.5)"><g id="g12"><g id="g14" clip-path="url(#clipPath16)"><g id="g20" transform="translate(21.5728,7.4922)"><path id="path22" d="M 0,0 -3.448,3.751 C -4.835,5.187 -5.667,6.118 -6.499,7.1 l -0.079,0 C -7.331,6.118 -8.124,5.211 -9.471,3.726 L -12.681,0 l -3.963,0 8.164,8.585 -7.847,8.384 4.003,0 3.527,-3.978 c 0.99,-1.108 1.743,-1.964 2.457,-2.87 l 0.118,0 c 0.753,1.007 1.427,1.787 2.418,2.87 l 3.606,3.978 4.002,0 L -4.32,8.711 4.002,0 0,0 z" style="fill:#ba3125;fill-opacity:1;fill-rule:nonzero;stroke:none"/></g><g id="g24" transform="translate(21.5728,7.4922)"><path id="path26" d="M 0,0 -3.448,3.751 C -4.835,5.187 -5.667,6.118 -6.499,7.1 l -0.079,0 C -7.331,6.118 -8.124,5.211 -9.471,3.726 L -12.681,0 l -3.963,0 8.164,8.585 -7.847,8.384 4.003,0 3.527,-3.978 c 0.99,-1.108 1.743,-1.964 2.457,-2.87 l 0.118,0 c 0.753,1.007 1.427,1.787 2.418,2.87 l 3.606,3.978 4.002,0 L -4.32,8.711 4.002,0 0,0 z" style="fill:none;stroke:#000;stroke-width:1;stroke-linecap:round;stroke-linejoin:round;stroke-miterlimit:4;stroke-opacity:1;stroke-dasharray:none"/></g></g></g></g></svg>