<svg xmlns="http://www.w3.org/2000/svg" xmlns:svg="http://www.w3.org/2000/svg" id="svg2" width="37.5" height="37.5" version="1.1" xml:space="preserve"><metadata id="metadata8"/><defs id="defs6"><clipPath id="clipPath16"><path id="path18" d="M 0,30 30,30 30,0 0,0 0,30 z"/></clipPath><clipPath id="clipPath32"><path id="path34" d="m 17.2539,28.377 9.9082,0 0,-9.6592 -9.9082,0 0,9.6592 z"/></clipPath></defs><g id="g10" transform="matrix(1.25,0,0,-1.25,0,37.5)"><g id="g12"><g id="g14" clip-path="url(#clipPath16)"><g id="g20" transform="translate(26.0625,15)"><path id="path22" d="m 0,0 c 0,-6.11 -4.953,-11.063 -11.063,-11.063 -6.109,0 -11.062,4.953 -11.062,11.063 0,6.11 4.953,11.063 11.062,11.063 C -4.953,11.063 0,6.11 0,0" style="fill:#ba3125;fill-opacity:1;fill-rule:nonzero;stroke:none"/></g><g id="g24" transform="translate(26.0625,15)"><path id="path26" d="m 0,0 c 0,-6.11 -4.953,-11.063 -11.063,-11.063 -6.109,0 -11.062,4.953 -11.062,11.063 0,6.11 4.953,11.063 11.062,11.063 C -4.953,11.063 0,6.11 0,0 z" style="fill:none;stroke:#000;stroke-width:1;stroke-linecap:butt;stroke-linejoin:miter;stroke-miterlimit:4;stroke-opacity:1;stroke-dasharray:none"/></g><g id="g48" transform="translate(5.3643,-7.0825)"><path id="path50" d="m 0,0 c 6.081,1.937 11.074,-2.006 11.292,3.379 0.218,5.385 2.929,2.96 7.002,0 4.072,-2.959 7.328,-17.373 3.854,-20.914 -3.473,-3.54 -10.209,-5.506 -12.704,-1.109 -2.495,4.397 -1.411,6.299 -2.929,9.646 -1.52,3.349 -4.559,0.446 -8.034,0 C -4.994,-9.442 -6.08,-1.937 0,0" style="fill:#000;fill-opacity:1;fill-rule:nonzero;stroke:none"/></g><path style="fill:#ff0;fill-opacity:1;stroke:#000;stroke-width:.29101852;stroke-miterlimit:4;stroke-dasharray:none;stroke-dashoffset:0;stroke-opacity:1" id="path4162" d="m 17.957423,-14.999037 1.260735,-4.71533 -4.880961,-0.0026 4.225716,-2.442767 -3.449494,-3.453228 4.71533,1.260736 0.0026,-4.880961 2.442768,4.225716 3.453227,-3.449494 -1.260735,4.71533 4.880961,0.0026 -4.225716,2.442768 3.449494,3.453227 -4.71533,-1.260735 -0.0026,4.880961 -2.442768,-4.225716 z" transform="scale(1,-1)"/></g></g></g></svg>