<svg xmlns="http://www.w3.org/2000/svg" xmlns:svg="http://www.w3.org/2000/svg" id="svg2" width="37.5" height="37.5" version="1.1" xml:space="preserve"><metadata id="metadata8"/><defs id="defs6"><clipPath id="clipPath16"><path id="path18" d="M 0,30 30,30 30,0 0,0 0,30 z"/></clipPath></defs><g id="g10" transform="matrix(1.25,0,0,-1.25,0,37.5)"><g id="g12"><g id="g14" clip-path="url(#clipPath16)"><g id="g20" transform="translate(29.2441,14.9995)"><path id="path22" d="m 0,0 c 0,-7.866 -6.378,-14.244 -14.244,-14.244 -7.867,0 -14.244,6.378 -14.244,14.244 0,7.867 6.377,14.245 14.244,14.245 C -6.378,14.245 0,7.867 0,0" style="fill:#000;fill-opacity:1;fill-rule:nonzero;stroke:none"/></g><g id="g24" transform="translate(29.2441,14.9995)"><path id="path26" d="m 0,0 c 0,-7.866 -6.378,-14.244 -14.244,-14.244 -7.867,0 -14.244,6.378 -14.244,14.244 0,7.867 6.377,14.245 14.244,14.245 C -6.378,14.245 0,7.867 0,0 z" style="fill:none;stroke:#000;stroke-width:1;stroke-linecap:butt;stroke-linejoin:miter;stroke-miterlimit:10;stroke-opacity:1;stroke-dasharray:none"/></g></g></g></g></svg>