<svg xmlns="http://www.w3.org/2000/svg" xmlns:svg="http://www.w3.org/2000/svg" id="svg2" width="37.5" height="37.5" version="1.1" xml:space="preserve"><metadata id="metadata8"/><defs id="defs6"><radialGradient id="radialGradient24" cx="0" cy="0" r="1" fx=".78" fy="-.089" gradientTransform="matrix(-7.0584412,5.7158203,5.7158203,7.0584412,16.835449,18.096191)" gradientUnits="userSpaceOnUse" spreadMethod="pad"><stop id="stop26" offset="0" style="stop-color:#dfe2f2;stop-opacity:1"/><stop id="stop28" offset=".926" style="stop-color:#00b0f0;stop-opacity:1"/><stop id="stop30" offset="1" style="stop-color:#00b0f0;stop-opacity:1"/></radialGradient><clipPath id="clipPath38"><path id="path40" d="M 0,30 30,30 30,0 0,0 0,30 z"/></clipPath></defs><g id="g10" transform="matrix(1.25,0,0,-1.25,0,37.5)"><g id="g12"><g id="g14"><g id="g20"><g id="g22"><path id="path32" d="m 7.673,17.685 c 0,-5.02 4.059,-9.09 9.079,-9.09 l 0,0 c 5.02,0 9.08,4.07 9.08,9.09 l 0,0 c 0,5.009 -4.06,9.079 -9.08,9.079 l 0,0 c -5.02,0 -9.079,-4.07 -9.079,-9.079" style="fill:url(#radialGradient24);stroke:none"/></g></g></g></g><g id="g34"><g id="g36" clip-path="url(#clipPath38)"><g id="g42" transform="translate(25.832,17.6846)"><path id="path44" d="m 0,0 c 0,-5.02 -4.06,-9.09 -9.08,-9.09 -5.02,0 -9.08,4.07 -9.08,9.09 0,5.01 4.06,9.08 9.08,9.08 C -4.06,9.08 0,5.01 0,0 z" style="fill:none;stroke:#3c4694;stroke-width:1;stroke-linecap:round;stroke-linejoin:round;stroke-miterlimit:10;stroke-opacity:1;stroke-dasharray:none"/></g><g id="g46" transform="translate(3.7075,1.6494)"><path id="path48" d="M 0,0 C 1.935,0 1.935,3 0,3 -1.935,3 -1.935,0 0,0" style="fill:#737577;fill-opacity:1;fill-rule:nonzero;stroke:none"/></g><g id="g50" transform="translate(5.0283,10.897)"><path id="path52" d="M 0,0 C 1.935,0 1.935,3 0,3 -1.935,3 -1.935,0 0,0" style="fill:#737577;fill-opacity:1;fill-rule:nonzero;stroke:none"/></g><g id="g54" transform="translate(10.3125,7.2632)"><path id="path56" d="M 0,0 C 1.935,0 1.935,3 0,3 -1.935,3 -1.935,0 0,0" style="fill:#737577;fill-opacity:1;fill-rule:nonzero;stroke:none"/></g><g id="g58" transform="translate(10.8081,16.8413)"><path id="path60" d="M 0,0 C 1.935,0 1.935,3 0,3 -1.935,3 -1.935,0 0,0" style="fill:#ba3125;fill-opacity:1;fill-rule:nonzero;stroke:none"/></g><g id="g62" transform="translate(16.7524,16.3467)"><path id="path64" d="M 0,0 C 1.935,0 1.935,3 0,3 -1.935,3 -1.935,0 0,0" style="fill:#ba3125;fill-opacity:1;fill-rule:nonzero;stroke:none"/></g><g id="g66" transform="translate(16.7524,10.731)"><path id="path68" d="M 0,0 C 1.935,0 1.935,3 0,3 -1.935,3 -1.935,0 0,0" style="fill:#ba3125;fill-opacity:1;fill-rule:nonzero;stroke:none"/></g><g id="g70" transform="translate(14.6064,21.9604)"><path id="path72" d="M 0,0 C 1.935,0 1.935,3 0,3 -1.935,3 -1.935,0 0,0" style="fill:#ba3125;fill-opacity:1;fill-rule:nonzero;stroke:none"/></g><g id="g74" transform="translate(21.2114,20.8877)"><path id="path76" d="M 0,0 C 1.935,0 1.935,3 0,3 -1.935,3 -1.935,0 0,0" style="fill:#ba3125;fill-opacity:1;fill-rule:nonzero;stroke:none"/></g><g id="g78" transform="translate(21.2114,14.5293)"><path id="path80" d="M 0,0 C 1.935,0 1.935,3 0,3 -1.935,3 -1.935,0 0,0" style="fill:#ba3125;fill-opacity:1;fill-rule:nonzero;stroke:none"/></g></g></g></g></svg>