<svg xmlns="http://www.w3.org/2000/svg" xmlns:svg="http://www.w3.org/2000/svg" id="svg2" width="37.5" height="37.5" version="1.1" xml:space="preserve"><metadata id="metadata8"/><defs id="defs6"><linearGradient id="linearGradient24" x1="0" x2="1" y1="0" y2="0" gradientTransform="matrix(19.740478,-11.140533,-11.140533,-19.740478,4.9599609,17.853516)" gradientUnits="userSpaceOnUse" spreadMethod="pad"><stop id="stop26" offset="0" style="stop-color:#dfe2f2;stop-opacity:1"/><stop id="stop28" offset=".908" style="stop-color:#00b0f0;stop-opacity:1"/><stop id="stop30" offset="1" style="stop-color:#00b0f0;stop-opacity:1"/></linearGradient><clipPath id="clipPath38"><path id="path40" d="M 0,30 30,30 30,0 0,0 0,30 z"/></clipPath><clipPath id="clipPath54"><path id="path56" d="M 0,30 30,30 30,0 0,0 0,30 z"/></clipPath></defs><g id="g10" transform="matrix(1.25,0,0,-1.25,0,37.5)"><g id="g12"><g id="g14"><g id="g20"><g id="g22"><path id="path32" d="m 0,7.625 30,0 0,9.125 -30,0 0,-9.125 z" style="fill:url(#linearGradient24);stroke:none"/></g></g></g></g><g id="g34"><g id="g36" clip-path="url(#clipPath38)"><g id="g42" transform="translate(19.4414,14.7285)"><path id="path44" d="M 0,0 z" style="fill:#bcd6f0;fill-opacity:1;fill-rule:nonzero;stroke:none"/></g></g></g><g id="g46" transform="translate(19.4414,14.7285)"><path id="path48" d="M 0,0 0,0 z" style="fill:none;stroke:#3c4694;stroke-width:1;stroke-linecap:butt;stroke-linejoin:miter;stroke-miterlimit:10;stroke-opacity:1;stroke-dasharray:none"/></g><g id="g50"><g id="g52" clip-path="url(#clipPath54)"><g id="g58" transform="translate(6.3965,3.1475)"><path id="path60" d="M 0,0 C 1.935,0 1.935,3 0,3 -1.935,3 -1.935,0 0,0" style="fill:#737577;fill-opacity:1;fill-rule:nonzero;stroke:none"/></g><g id="g62" transform="translate(7.7168,12.3945)"><path id="path64" d="M 0,0 C 1.935,0 1.935,3 0,3 -1.935,3 -1.935,0 0,0" style="fill:#ba3125;fill-opacity:1;fill-rule:nonzero;stroke:none"/></g><g id="g66" transform="translate(13.001,9.7607)"><path id="path68" d="M 0,0 C 1.935,0 1.935,3 0,3 -1.935,3 -1.935,0 0,0" style="fill:#ba3125;fill-opacity:1;fill-rule:nonzero;stroke:none"/></g><g id="g70" transform="translate(13.4971,19.3389)"><path id="path72" d="M 0,0 C 1.935,0 1.935,3 0,3 -1.935,3 -1.935,0 0,0" style="fill:#737577;fill-opacity:1;fill-rule:nonzero;stroke:none"/></g><g id="g74" transform="translate(19.4414,18.8447)"><path id="path76" d="M 0,0 C 1.935,0 1.935,3 0,3 -1.935,3 -1.935,0 0,0" style="fill:#737577;fill-opacity:1;fill-rule:nonzero;stroke:none"/></g><g id="g78" transform="translate(19.4414,12.2285)"><path id="path80" d="M 0,0 C 1.935,0 1.935,3 0,3 -1.935,3 -1.935,0 0,0" style="fill:#ba3125;fill-opacity:1;fill-rule:nonzero;stroke:none"/></g><g id="g82" transform="translate(17.2949,24.458)"><path id="path84" d="M 0,0 C 1.935,0 1.935,3 0,3 -1.935,3 -1.935,0 0,0" style="fill:#737577;fill-opacity:1;fill-rule:nonzero;stroke:none"/></g><g id="g86" transform="translate(24.9004,23.3857)"><path id="path88" d="M 0,0 C 1.935,0 1.935,3 0,3 -1.935,3 -1.935,0 0,0" style="fill:#737577;fill-opacity:1;fill-rule:nonzero;stroke:none"/></g><g id="g90" transform="translate(24.9004,18.0273)"><path id="path92" d="M 0,0 C 1.935,0 1.935,3 0,3 -1.935,3 -1.935,0 0,0" style="fill:#737577;fill-opacity:1;fill-rule:nonzero;stroke:none"/></g><g id="g94" transform="translate(0,16.75)"><path id="path96" d="M 0,0 30,0" style="fill:none;stroke:#3f4096;stroke-width:1;stroke-linecap:butt;stroke-linejoin:miter;stroke-miterlimit:10;stroke-opacity:1;stroke-dasharray:none"/></g><g id="g98" transform="translate(0,7.625)"><path id="path100" d="M 0,0 30,0" style="fill:none;stroke:#3f4096;stroke-width:1;stroke-linecap:butt;stroke-linejoin:miter;stroke-miterlimit:10;stroke-opacity:1;stroke-dasharray:none"/></g></g></g></g></svg>