<svg xmlns="http://www.w3.org/2000/svg" xmlns:svg="http://www.w3.org/2000/svg" id="svg2" width="37.5" height="37.5" version="1.1" xml:space="preserve"><metadata id="metadata8"/><defs id="defs6"><clipPath id="clipPath16"><path id="path18" d="M 0,30 30,30 30,0 0,0 0,30 z"/></clipPath><clipPath id="clipPath24"><path id="path26" d="m 9.05273,18.9521 11.55667,0 0,-9.48286 -11.55667,0 0,9.48286 z"/></clipPath></defs><g id="g10" transform="matrix(1.25,0,0,-1.25,0,37.5)"><g id="g12"><g id="g14" clip-path="url(#clipPath16)"><g id="g20"><g id="g28"><g id="g30" clip-path="url(#clipPath24)"><g id="g32" transform="translate(20.5977,18.5488)"><path id="path34" d="m 0,0 c 0.012,-0.059 0.012,-0.13 0.012,-0.189 0,-4.908 -3.983,-8.891 -8.89,-8.891 -0.925,0 -1.813,0.142 -2.655,0.403 -0.012,0.06 -0.012,0.131 -0.012,0.19 0,4.907 3.982,8.89 8.89,8.89 C -1.73,0.403 -0.842,0.261 0,0" style="fill:#ba3125;fill-opacity:1;fill-rule:nonzero;stroke:none"/></g></g></g></g><g id="g36" transform="translate(20.5977,18.5488)"><path id="path38" d="m 0,0 c 3.615,-1.126 6.235,-4.504 6.235,-8.487 0,-4.908 -3.983,-8.89 -8.89,-8.89 -4.848,0 -8.783,3.876 -8.878,8.7 -0.012,0.06 -0.012,0.131 -0.012,0.19 0,4.907 3.982,8.89 8.89,8.89 C -1.73,0.403 -0.842,0.261 0,0 z" style="fill:none;stroke:#000;stroke-width:1;stroke-linecap:butt;stroke-linejoin:miter;stroke-miterlimit:10;stroke-opacity:1;stroke-dasharray:none"/></g><g id="g40" transform="translate(20.5977,18.5488)"><path id="path42" d="m 0,0 c 0.012,-0.059 0.012,-0.13 0.012,-0.189 0,-4.908 -3.983,-8.891 -8.89,-8.891 -0.925,0 -1.813,0.142 -2.655,0.403 -3.615,1.127 -6.236,4.505 -6.236,8.488 0,4.907 3.984,8.89 8.891,8.89 C -4.03,8.701 -0.095,4.825 0,0 z" style="fill:none;stroke:#000;stroke-width:1;stroke-linecap:butt;stroke-linejoin:miter;stroke-miterlimit:10;stroke-opacity:1;stroke-dasharray:none"/></g></g></g></g></svg>