<svg xmlns="http://www.w3.org/2000/svg" xmlns:svg="http://www.w3.org/2000/svg" id="svg2" width="37.5" height="37.5" version="1.1" xml:space="preserve"><metadata id="metadata8"/><defs id="defs6"><clipPath id="clipPath16"><path id="path18" d="M 0,30 30,30 30,0 0,0 0,30 z"/></clipPath><clipPath id="clipPath24"><path id="path26" d="m 5.92334,18.3984 21.38866,0 0,-15.6235 -21.38866,0 0,15.6235 z"/></clipPath><clipPath id="clipPath40"><path id="path42" d="m 5.42041,18.8999 22.39209,0 0,-16.62744 -22.39209,0 0,16.62744 z"/></clipPath><clipPath id="clipPath56"><path id="path58" d="m 8.74023,15.0342 7.68997,0 0,-1.1924 -7.68997,0 0,1.1924 z"/></clipPath><clipPath id="clipPath72"><path id="path74" d="m 8.24023,15.5366 8.69877,0 0,-2.1992 -8.69877,0 0,2.1992 z"/></clipPath><clipPath id="clipPath88"><path id="path90" d="m 8.74023,12.3091 7.68997,0 0,-1.1914 -7.68997,0 0,1.1914 z"/></clipPath><clipPath id="clipPath104"><path id="path106" d="m 8.24023,12.8115 8.69877,0 0,-2.1982 -8.69877,0 0,2.1982 z"/></clipPath><clipPath id="clipPath120"><path id="path122" d="m 8.74023,9.50781 7.68997,0 0,-1.19238 -7.68997,0 0,1.19238 z"/></clipPath><clipPath id="clipPath136"><path id="path138" d="m 8.24023,10.0103 8.69877,0 0,-2.19926 -8.69877,0 0,2.19926 z"/></clipPath><linearGradient id="linearGradient160" x1="0" x2="1" y1="0" y2="0" gradientTransform="matrix(2.2347565,-3.1164093,10.191421,6.5961761,21.875488,23.890625)" gradientUnits="userSpaceOnUse" spreadMethod="pad"><stop id="stop162" offset="0" style="stop-color:#fcdeb4;stop-opacity:1"/><stop id="stop164" offset="1" style="stop-color:#efab35;stop-opacity:1"/></linearGradient><clipPath id="clipPath172"><path id="path174" d="M 0,30 30,30 30,0 0,0 0,30 z"/></clipPath><clipPath id="clipPath180"><path id="path182" d="m 15.9497,27.7251 13.8965,0 0,-11.1001 -13.8965,0 0,11.1001 z"/></clipPath><clipPath id="clipPath196"><path id="path198" d="m 0.154297,23.4883 19.418003,0 0,-19.58547 -19.418003,0 0,19.58547 z"/></clipPath><clipPath id="clipPath212"><path id="path214" d="m 0.736816,22.8257 18.198684,0 0,-18.19826 -18.198684,0 0,18.19826 z"/></clipPath><clipPath id="clipPath228"><path id="path230" d="m 2.126,13.683 c 0,-4.333 3.512,-7.845 7.843,-7.845 l 0,0 c 4.333,0 7.845,3.512 7.845,7.845 l 0,0 c 0,4.331 -3.512,7.843 -7.845,7.843 l 0,0 c -4.331,0 -7.843,-3.512 -7.843,-7.843"/></clipPath><radialGradient id="radialGradient240" cx="0" cy="0" r="1" fx="0" fy="0" gradientTransform="matrix(10.217026,0,0,10.647156,7.5004883,16.9375)" gradientUnits="userSpaceOnUse" spreadMethod="pad"><stop id="stop242" offset="0" style="stop-color:#fff;stop-opacity:.43137255"/><stop id="stop244" offset="1" style="stop-color:#fff;stop-opacity:.43527886"/></radialGradient><mask id="mask246"><g id="g248"><g id="g250"><g id="g252"><g id="g254"><path id="path256" d="m -32767,32767 65534,0 0,-65534 -65534,0 0,65534 z" style="fill:url(#radialGradient240);stroke:none"/></g></g></g></g></mask><radialGradient id="radialGradient262" cx="0" cy="0" r="1" fx="0" fy="0" gradientTransform="matrix(10.217026,0,0,10.647156,7.5004883,16.9375)" gradientUnits="userSpaceOnUse" spreadMethod="pad"><stop id="stop264" offset="0" style="stop-color:#c9eaf6;stop-opacity:1"/><stop id="stop266" offset="1" style="stop-color:#4ba1a9;stop-opacity:1"/></radialGradient><clipPath id="clipPath274"><path id="path276" d="M 0,30 30,30 30,0 0,0 0,30 z"/></clipPath><clipPath id="clipPath286"><path id="path288" d="m 1.35889,22.2036 17.13231,0 0,-17.13182 -17.13231,0 0,17.13182 z"/></clipPath></defs><g id="g10" transform="matrix(1.25,0,0,-1.25,0,37.5)"><g id="g12"><g id="g14" clip-path="url(#clipPath16)"><g id="g20"><g id="g28"><g id="g30" clip-path="url(#clipPath24)" style="opacity:.99000501"><g id="g32" transform="translate(6.0151,18.3354)"><path id="path34" d="M 0,0 21.297,0.063 21.283,-15.561 -0.092,-15.463 0,0 z" style="fill:#fffefe;fill-opacity:1;fill-rule:nonzero;stroke:none"/></g></g></g></g><g id="g36"><g id="g44"><g id="g46" clip-path="url(#clipPath40)" style="opacity:.97999603"><g id="g48" transform="translate(6.0151,18.3354)"><path id="path50" d="M 0,0 21.297,0.063 21.283,-15.561 -0.092,-15.463 0,0 z" style="fill:none;stroke:#3ea9bb;stroke-width:1;stroke-linecap:butt;stroke-linejoin:miter;stroke-miterlimit:4;stroke-opacity:1;stroke-dasharray:none"/></g></g></g></g><g id="g52"><g id="g60"><g id="g62" clip-path="url(#clipPath56)" style="opacity:.99215698"><g id="g64" transform="translate(8.7402,14.998)"><path id="path66" d="M 0,0 7.67,0.036 7.69,-1.09 0,-1.156 0,0 z" style="fill:#2d6683;fill-opacity:1;fill-rule:nonzero;stroke:none"/></g></g></g></g><g id="g68"><g id="g76"><g id="g78" clip-path="url(#clipPath72)" style="opacity:.99000501"><g id="g80" transform="translate(8.7402,14.998)"><path id="path82" d="M 0,0 7.67,0.036 7.69,-1.09 0,-1.156 0,0 z" style="fill:none;stroke:#2d6683;stroke-width:1;stroke-linecap:butt;stroke-linejoin:miter;stroke-miterlimit:4;stroke-opacity:1;stroke-dasharray:none"/></g></g></g></g><g id="g84"><g id="g92"><g id="g94" clip-path="url(#clipPath88)" style="opacity:.99215698"><g id="g96" transform="translate(8.7402,12.2744)"><path id="path98" d="M 0,0 7.67,0.035 7.69,-1.09 0,-1.157 0,0 z" style="fill:#2d6683;fill-opacity:1;fill-rule:nonzero;stroke:none"/></g></g></g></g><g id="g100"><g id="g108"><g id="g110" clip-path="url(#clipPath104)" style="opacity:.99000501"><g id="g112" transform="translate(8.7402,12.2744)"><path id="path114" d="M 0,0 7.67,0.035 7.69,-1.09 0,-1.157 0,0 z" style="fill:none;stroke:#2d6683;stroke-width:1;stroke-linecap:butt;stroke-linejoin:miter;stroke-miterlimit:4;stroke-opacity:1;stroke-dasharray:none"/></g></g></g></g><g id="g116"><g id="g124"><g id="g126" clip-path="url(#clipPath120)" style="opacity:.99215698"><g id="g128" transform="translate(8.7402,9.4722)"><path id="path130" d="M 0,0 7.67,0.036 7.69,-1.09 0,-1.157 0,0 z" style="fill:#2d6683;fill-opacity:1;fill-rule:nonzero;stroke:none"/></g></g></g></g><g id="g132"><g id="g140"><g id="g142" clip-path="url(#clipPath136)" style="opacity:.99000501"><g id="g144" transform="translate(8.7402,9.4722)"><path id="path146" d="M 0,0 7.67,0.036 7.69,-1.09 0,-1.157 0,0 z" style="fill:none;stroke:#2d6683;stroke-width:1;stroke-linecap:butt;stroke-linejoin:miter;stroke-miterlimit:4;stroke-opacity:1;stroke-dasharray:none"/></g></g></g></g></g></g><g id="g148"><g id="g150"><g id="g156"><g id="g158"><path id="path166" d="m 26.807,27.101 -10.358,-6.524 2.209,-3.452 10.232,6.547 c 0.396,0.259 0.558,0.598 0.391,0.954 l 0,0 c -0.51,0.796 -1.019,1.593 -1.528,2.389 l 0,0 c -0.154,0.138 -0.34,0.21 -0.529,0.21 l 0,0 c -0.142,0 -0.284,-0.041 -0.417,-0.124" style="fill:url(#linearGradient160);stroke:none"/></g></g></g></g><g id="g168"><g id="g170" clip-path="url(#clipPath172)"><g id="g176"><g id="g184"><g id="g186" clip-path="url(#clipPath180)" style="opacity:.99215698"><g id="g188" transform="translate(18.6582,17.125)"><path id="path190" d="m 0,0 10.231,6.546 c 0.396,0.26 0.559,0.599 0.392,0.955 -0.51,0.796 -1.019,1.593 -1.528,2.39 -0.27,0.24 -0.637,0.28 -0.946,0.085 L -2.208,3.452 0,0 z" style="fill:none;stroke:#d0673a;stroke-width:1;stroke-linecap:butt;stroke-linejoin:round;stroke-miterlimit:4;stroke-opacity:1;stroke-dasharray:none"/></g></g></g></g><g id="g192"><g id="g200"><g id="g202" clip-path="url(#clipPath196)" style="opacity:.70196497"><g id="g204" transform="translate(0.6543,13.6963)"><path id="path206" d="m 0,0 c 0,-5.125 4.131,-9.293 9.209,-9.293 5.078,0 9.209,4.168 9.209,9.293 0,5.124 -4.131,9.292 -9.209,9.292 C 4.131,9.292 0,5.124 0,0 z" style="fill:none;stroke:#a8caeb;stroke-width:1;stroke-linecap:butt;stroke-linejoin:miter;stroke-miterlimit:4;stroke-opacity:1;stroke-dasharray:none"/></g></g></g></g><g id="g208"><g id="g216"><g id="g218" clip-path="url(#clipPath212)" style="opacity:.98823499"><g id="g220" transform="translate(18.4355,13.7271)"><path id="path222" d="m 0,0 c 0,-4.75 -3.85,-8.6 -8.599,-8.6 -4.75,0 -8.6,3.85 -8.6,8.6 0,4.749 3.85,8.599 8.6,8.599 C -3.85,8.599 0,4.749 0,0 z" style="fill:none;stroke:#346d77;stroke-width:1;stroke-linecap:butt;stroke-linejoin:miter;stroke-miterlimit:4;stroke-opacity:1;stroke-dasharray:none"/></g></g></g></g></g></g><g id="g224"><g id="g226" clip-path="url(#clipPath228)"><g id="g232"><g id="g258" mask="url(#mask246)"><g id="g260"><path id="path268" d="m 2.126,13.683 c 0,-4.333 3.512,-7.845 7.843,-7.845 l 0,0 c 4.333,0 7.845,3.512 7.845,7.845 l 0,0 c 0,4.331 -3.512,7.843 -7.845,7.843 l 0,0 c -4.331,0 -7.843,-3.512 -7.843,-7.843" style="fill:url(#radialGradient262);stroke:none"/></g></g></g></g></g><g id="g270"><g id="g272" clip-path="url(#clipPath274)"><g id="g278" transform="translate(16.6104,18.7319)"><path id="path280" d="M 0,0 0.089,-0.177" style="fill:none;stroke:#292929;stroke-width:1;stroke-linecap:butt;stroke-linejoin:miter;stroke-miterlimit:4;stroke-opacity:1;stroke-dasharray:none"/></g><g id="g282"><g id="g290"><g id="g292" clip-path="url(#clipPath286)" style="opacity:.98823499"><g id="g294" transform="translate(17.9912,13.6382)"><path id="path296" d="m 0,0 c 0,-4.455 -3.611,-8.066 -8.066,-8.066 -4.455,0 -8.066,3.611 -8.066,8.066 0,4.455 3.611,8.065 8.066,8.065 C -3.611,8.065 0,4.455 0,0 z" style="fill:none;stroke:#292929;stroke-width:1;stroke-linecap:butt;stroke-linejoin:miter;stroke-miterlimit:4;stroke-opacity:1;stroke-dasharray:none"/></g></g></g></g></g></g></g></svg>