<svg xmlns="http://www.w3.org/2000/svg" xmlns:svg="http://www.w3.org/2000/svg" id="svg2" width="37.5" height="37.5" version="1.1" xml:space="preserve"><metadata id="metadata8"/><defs id="defs6"><clipPath id="clipPath24"><path id="path26" d="M 0,30 30,30 30,0 0,0 0,30 z"/></clipPath></defs><g id="g10" transform="matrix(1.25,0,0,-1.25,0,37.5)"><g id="g12" transform="translate(10.8525,19.6855)"><path id="path14" d="M 0,0 5.752,5.752" style="fill:none;stroke:#c1343e;stroke-width:1;stroke-linecap:butt;stroke-linejoin:miter;stroke-miterlimit:10;stroke-opacity:1;stroke-dasharray:none"/></g><g id="g16" transform="translate(20.8335,10.5093)"><path id="path18" d="M 0,0 6.917,5.065" style="fill:none;stroke:#c1343e;stroke-width:1;stroke-linecap:butt;stroke-linejoin:miter;stroke-miterlimit:10;stroke-opacity:1;stroke-dasharray:none"/></g><g id="g20"><g id="g22" clip-path="url(#clipPath24)"><g id="g28" transform="translate(11.917,20.125)"><path id="path30" d="M 0,0 C -0.306,-1.587 1.186,-5.759 2.521,-7.083 3.696,-8.249 6.917,-9.3 8.917,-8.794" style="fill:none;stroke:#c1343e;stroke-width:1;stroke-linecap:butt;stroke-linejoin:miter;stroke-miterlimit:10;stroke-opacity:1;stroke-dasharray:none"/></g><path id="path32" d="m 21.375,4.676 -17.772,0 0,15.449 17.772,0 0,-15.449 z" style="fill:none;stroke:#000;stroke-width:2;stroke-linecap:round;stroke-linejoin:round;stroke-miterlimit:10;stroke-opacity:1;stroke-dasharray:none"/><g id="g34" transform="translate(3.6025,20.1357)"><path id="path36" d="m 0,0 5.891,5.781 17.773,0 0,-15.449" style="fill:none;stroke:#000;stroke-width:2;stroke-linecap:round;stroke-linejoin:round;stroke-miterlimit:10;stroke-opacity:1;stroke-dasharray:none"/></g><g id="g38" transform="translate(21.375,20.125)"><path id="path40" d="M 0,0 5.891,5.5 0,0 z" style="fill:none;stroke:#000;stroke-width:2;stroke-linecap:butt;stroke-linejoin:miter;stroke-miterlimit:10;stroke-opacity:1;stroke-dasharray:none"/></g><g id="g42" transform="translate(21.375,4.6763)"><path id="path44" d="M 0,0 5.891,5.5 0,0 z" style="fill:none;stroke:#000;stroke-width:2;stroke-linecap:round;stroke-linejoin:round;stroke-miterlimit:10;stroke-opacity:1;stroke-dasharray:none"/></g><g id="g46" transform="translate(13.8335,21.6665)"><path id="path48" d="M 0,0 0,0" style="fill:none;stroke:#c1343e;stroke-width:1;stroke-linecap:butt;stroke-linejoin:miter;stroke-miterlimit:10;stroke-opacity:1;stroke-dasharray:none"/></g></g></g></g></svg>