<svg xmlns="http://www.w3.org/2000/svg" xmlns:svg="http://www.w3.org/2000/svg" id="svg2" width="37.5" height="37.5" version="1.1" xml:space="preserve"><metadata id="metadata8"/><defs id="defs6"><clipPath id="clipPath16"><path id="path18" d="M 0,30 30,30 30,0 0,0 0,30 z"/></clipPath><clipPath id="clipPath28"><path id="path30" d="m 3.45312,24.6904 23.71678,0 0,-21.88669 -23.71678,0 0,21.88669 z"/></clipPath><clipPath id="clipPath44"><path id="path46" d="m 2.12109,25.1904 26.41211,0 0,-23.04587 -26.41211,0 0,23.04587 z"/></clipPath><clipPath id="clipPath60"><path id="path62" d="M 0,30 30,30 30,0 0,0 0,30 z"/></clipPath><linearGradient id="linearGradient76" x1="0" x2="1" y1="0" y2="0" gradientTransform="matrix(16.349213,-9.2266693,-9.2266693,-16.349213,6.6845703,49.629883)" gradientUnits="userSpaceOnUse" spreadMethod="pad"><stop id="stop78" offset="0" style="stop-color:#dfe2f2;stop-opacity:1"/><stop id="stop80" offset=".908" style="stop-color:#00b0f0;stop-opacity:1"/><stop id="stop82" offset="1" style="stop-color:#00b0f0;stop-opacity:1"/></linearGradient><clipPath id="clipPath90"><path id="path92" d="M 0,30 30,30 30,0 0,0 0,30 z"/></clipPath></defs><g id="g10" transform="matrix(1.25,0,0,-1.25,0,37.5)"><g id="g12"><g id="g14" clip-path="url(#clipPath16)"><g id="g20" transform="translate(-24.6357,22.9175)"><path id="path22" d="m 0,0 c 6.081,1.937 11.074,-2.006 11.292,3.379 0.218,5.385 2.929,2.96 7.002,0 4.072,-2.959 7.328,-17.373 3.854,-20.914 -3.473,-3.54 -10.209,-5.506 -12.704,-1.109 -2.495,4.397 -1.411,6.299 -2.929,9.646 -1.52,3.349 -4.559,0.446 -8.034,0 C -4.994,-9.442 -6.08,-1.937 0,0" style="fill:#000;fill-opacity:1;fill-rule:nonzero;stroke:none"/></g><g id="g24"><g id="g32"><g id="g34" clip-path="url(#clipPath28)" style="opacity:.99215698"><g id="g36" transform="translate(15.3389,2.8037)"><path id="path38" d="m 0,0 -11.886,10.068 6.785,0.136 0.121,11.683 9.962,0 0.123,-11.683 6.726,0.133 L 0,0 z" style="fill:#c1343e;fill-opacity:1;fill-rule:nonzero;stroke:none"/></g></g></g></g><g id="g40"><g id="g48"><g id="g50" clip-path="url(#clipPath44)" style="opacity:.99000501"><g id="g52" transform="translate(15.3389,2.8037)"><path id="path54" d="m 0,0 -11.886,10.068 6.785,0.136 0.121,11.683 9.962,0 0.123,-11.683 6.726,0.133 L 0,0 z" style="fill:none;stroke:#000;stroke-width:1;stroke-linecap:butt;stroke-linejoin:miter;stroke-miterlimit:4;stroke-opacity:1;stroke-dasharray:none"/></g></g></g></g></g></g><g id="g56"><g id="g58" clip-path="url(#clipPath60)"><g id="g64"><g id="g66"><g id="g72"><g id="g74"><path id="path84" d="m 21.125,30 -12.25,0 0,29.875 12.25,0 0,-29.875 z" style="fill:url(#linearGradient76);stroke:none"/></g></g></g></g></g></g><g id="g86"><g id="g88" clip-path="url(#clipPath90)"><g id="g94" transform="translate(8.875,59.8755)"><path id="path96" d="M 0,0 0,-29.875" style="fill:none;stroke:#3f4096;stroke-width:1;stroke-linecap:butt;stroke-linejoin:miter;stroke-miterlimit:10;stroke-opacity:1;stroke-dasharray:none"/></g><g id="g98" transform="translate(20.875,59.8755)"><path id="path100" d="M 0,0 0,-29.875" style="fill:none;stroke:#3f4096;stroke-width:1;stroke-linecap:butt;stroke-linejoin:miter;stroke-miterlimit:10;stroke-opacity:1;stroke-dasharray:none"/></g></g></g></g></svg>