<svg xmlns="http://www.w3.org/2000/svg" xmlns:svg="http://www.w3.org/2000/svg" id="svg2" width="37.5" height="37.5" version="1.1" xml:space="preserve"><metadata id="metadata8"/><defs id="defs6"><clipPath id="clipPath16"><path id="path18" d="M 0,30 30,30 30,0 0,0 0,30 z"/></clipPath><clipPath id="clipPath24"><path id="path26" d="m 1.90283,27.5059 26.19437,0 0,-25.01176 -26.19437,0 0,25.01176 z"/></clipPath><clipPath id="clipPath28"><path id="path30" d="m 1.91,25.196 c -0.092,1.072 0.669,2.175 1.682,2.31 l 22.911,-0.122 c 0.833,-0.079 1.364,-0.533 1.594,-1.814 L 28.077,4.688 25.737,2.594 4.034,2.494 1.916,4.796 1.91,25.196 z"/></clipPath><radialGradient id="radialGradient36" cx="0" cy="0" r="1" fx="0" fy="0" gradientTransform="matrix(17.53743,-4.58e-5,0,14.35376,7.3129883,19.4375)" gradientUnits="userSpaceOnUse" spreadMethod="pad"><stop id="stop38" offset="0" style="stop-color:#fff;stop-opacity:.6156863"/><stop id="stop40" offset="1" style="stop-color:#fff;stop-opacity:.91764706"/></radialGradient><mask id="mask42"><g id="g44"><g id="g46"><g id="g48"><g id="g50"><path id="path52" d="m -32767,32767 65534,0 0,-65534 -65534,0 0,65534 z" style="fill:url(#radialGradient36);stroke:none"/></g></g></g></g></mask><radialGradient id="radialGradient54" cx="0" cy="0" r="1" fx="0" fy="0" gradientTransform="matrix(17.53743,-4.58e-5,0,14.35376,7.3129883,19.4375)" gradientUnits="userSpaceOnUse" spreadMethod="pad"><stop id="stop56" offset="0" style="stop-color:#2d6582;stop-opacity:1"/><stop id="stop58" offset="1" style="stop-color:#29506f;stop-opacity:1"/></radialGradient><clipPath id="clipPath82"><path id="path84" d="m 1.40283,28.0059 27.19437,0 0,-26.01176 -27.19437,0 0,26.01176 z"/></clipPath><clipPath id="clipPath98"><path id="path100" d="m 9.01123,11.1182 12.83397,0 0,-8.33109 -12.83397,0 0,8.33109 z"/></clipPath><linearGradient id="linearGradient106" x1="0" x2="1" y1="0" y2="0" gradientTransform="matrix(11.000671,-8.0020905,11.931717,14.256714,10.187988,10.75)" gradientUnits="userSpaceOnUse" spreadMethod="pad"><stop id="stop108" offset="0" style="stop-color:#f7f8f9;stop-opacity:1"/><stop id="stop110" offset="1" style="stop-color:#999898;stop-opacity:1"/></linearGradient><clipPath id="clipPath130"><path id="path132" d="m 8.50586,11.6182 13.84624,0 0,-9.33158 -13.84624,0 0,9.33158 z"/></clipPath><clipPath id="clipPath146"><path id="path148" d="m 3.30029,25.5264 1.6416,0 0,-1.794 -1.6416,0 0,1.794 z"/></clipPath><clipPath id="clipPath162"><path id="path164" d="m 2.7998,26.0317 2.64356,0 0,-2.8188 -2.64356,0 0,2.8188 z"/></clipPath><clipPath id="clipPath178"><path id="path180" d="m 6.10498,27.291 18.14062,0 0,-10.4795 -18.14062,0 0,10.4795 z"/></clipPath><linearGradient id="linearGradient186" x1="0" x2="1" y1="0" y2="0" gradientTransform="matrix(16.269119,-8.6781158,15.47258,18.159607,8.1254883,25.75)" gradientUnits="userSpaceOnUse" spreadMethod="pad"><stop id="stop188" offset="0" style="stop-color:#feffff;stop-opacity:1"/><stop id="stop190" offset="1" style="stop-color:#b2b5b8;stop-opacity:1"/></linearGradient><clipPath id="clipPath210"><path id="path212" d="m 5.59912,27.791 19.15378,0 0,-11.48 -19.15378,0 0,11.48 z"/></clipPath><clipPath id="clipPath226"><path id="path228" d="m 11.2749,22.8828 11.0957,0 0,-1.1172 -11.0957,0 0,1.1172 z"/></clipPath><clipPath id="clipPath242"><path id="path244" d="m 10.7695,23.3838 12.1197,0 0,-2.1187 -12.1197,0 0,2.1187 z"/></clipPath><clipPath id="clipPath258"><path id="path260" d="m 11.1343,10.3008 3.2842,0 0,-6.60353 -3.2842,0 0,6.60353 z"/></clipPath><clipPath id="clipPath274"><path id="path276" d="M 6.474,27.053 23.825,27.021 23.887,25.315 6.492,25.3 6.474,27.053 z"/></clipPath><linearGradient id="linearGradient286" x1="0" x2="1" y1="0" y2="0" gradientTransform="matrix(-0.3928223,2.9530029,-25.049133,-0.1617737,15.437988,24.289062)" gradientUnits="userSpaceOnUse" spreadMethod="pad"><stop id="stop288" offset="0" style="stop-color:#fff;stop-opacity:.99217212"/><stop id="stop290" offset="1" style="stop-color:#fff;stop-opacity:.95295644"/></linearGradient><mask id="mask292"><g id="g294"><g id="g296"><g id="g298"><g id="g300"><path id="path302" d="m -32768,32767 65535,0 0,-65534 -65535,0 0,65534 z" style="fill:url(#linearGradient286);stroke:none"/></g></g></g></g></mask><linearGradient id="linearGradient308" x1="0" x2="1" y1="0" y2="0" gradientTransform="matrix(-0.3928223,2.9530029,-25.049133,-0.1617737,15.437988,24.289062)" gradientUnits="userSpaceOnUse" spreadMethod="pad"><stop id="stop310" offset="0" style="stop-color:#fcdeb4;stop-opacity:1"/><stop id="stop312" offset="1" style="stop-color:#efab35;stop-opacity:1"/></linearGradient><clipPath id="clipPath320"><path id="path322" d="M 0,30 30,30 30,0 0,0 0,30 z"/></clipPath><clipPath id="clipPath328"><path id="path330" d="m 5.96826,27.5537 18.43754,0 0,-2.7544 -18.43754,0 0,2.7544 z"/></clipPath><clipPath id="clipPath344"><path id="path346" d="m 11.2749,20.3555 11.0957,0 0,-1.1162 -11.0957,0 0,1.1162 z"/></clipPath><clipPath id="clipPath360"><path id="path362" d="m 10.7695,20.8564 12.1197,0 0,-2.1176 -12.1197,0 0,2.1176 z"/></clipPath><clipPath id="clipPath376"><path id="path378" d="m 25.2861,25.6523 1.6416,0 0,-1.7929 -1.6416,0 0,1.7929 z"/></clipPath><clipPath id="clipPath392"><path id="path394" d="m 24.7852,26.1572 2.644,0 0,-2.8174 -2.644,0 0,2.8174 z"/></clipPath></defs><g id="g10" transform="matrix(1.25,0,0,-1.25,0,37.5)"><g id="g12"><g id="g14" clip-path="url(#clipPath16)"><g id="g20"><g id="g60"><g id="g62" clip-path="url(#clipPath24)" style="opacity:.99000501"><g id="g64"><g id="g66" clip-path="url(#clipPath28)"><g id="g68"><g id="g72" mask="url(#mask42)"><g id="g74"><path id="path76" d="m 1.91,25.196 c -0.092,1.072 0.669,2.175 1.682,2.31 l 22.911,-0.122 c 0.833,-0.079 1.364,-0.533 1.594,-1.814 L 28.077,4.688 25.737,2.594 4.034,2.494 1.916,4.796 1.91,25.196 z" style="fill:url(#radialGradient54);stroke:none"/></g></g></g></g></g></g></g></g><g id="g78"><g id="g86"><g id="g88" clip-path="url(#clipPath82)" style="opacity:.99000501"><g id="g90" transform="translate(1.9102,25.1963)"><path id="path92" d="M 0,0 C -0.092,1.071 0.669,2.175 1.682,2.31 L 24.593,2.188 c 0.833,-0.08 1.364,-0.534 1.594,-1.814 l -0.02,-20.882 -2.34,-2.095 L 2.124,-22.702 0.005,-20.4 0,0 z" style="fill:none;stroke:#2d6582;stroke-width:1;stroke-linecap:round;stroke-linejoin:round;stroke-miterlimit:4;stroke-opacity:1;stroke-dasharray:none"/></g></g></g></g><g id="g94"><g id="g112"><g id="g114" clip-path="url(#clipPath98)" style="opacity:.69929498"><g id="g116"><g id="g118"><g id="g120"><g id="g122"><path id="path124" d="M 9.096,11.118 21.736,11.115 21.845,2.797 9.011,2.787 9.096,11.118 z" style="fill:url(#linearGradient106);stroke:none"/></g></g></g></g></g></g></g><g id="g126"><g id="g134"><g id="g136" clip-path="url(#clipPath130)" style="opacity:.99215698"><g id="g138" transform="translate(9.0962,11.1182)"><path id="path140" d="M 0,0 12.64,-0.003 12.749,-8.321 -0.085,-8.331 0,0 z" style="fill:none;stroke:#333b4e;stroke-width:1;stroke-linecap:butt;stroke-linejoin:miter;stroke-miterlimit:4;stroke-opacity:1;stroke-dasharray:none"/></g></g></g></g><g id="g142"><g id="g150"><g id="g152" clip-path="url(#clipPath146)" style="opacity:.99215698"><g id="g154" transform="translate(4.9419,23.7324)"><path id="path156" d="M 0,0 -1.639,0.063 -1.642,1.777 -0.004,1.794 0,0 z" style="fill:#fff;fill-opacity:1;fill-rule:nonzero;stroke:none"/></g></g></g></g><g id="g158"><g id="g166"><g id="g168" clip-path="url(#clipPath162)" style="opacity:.99215698"><g id="g170" transform="translate(4.9419,23.7324)"><path id="path172" d="M 0,0 -1.639,0.063 -1.642,1.777 -0.004,1.794 0,0 z" style="fill:none;stroke:#333b4e;stroke-width:1;stroke-linecap:butt;stroke-linejoin:miter;stroke-miterlimit:4;stroke-opacity:1;stroke-dasharray:none"/></g></g></g></g><g id="g174"><g id="g192"><g id="g194" clip-path="url(#clipPath178)" style="opacity:.69929498"><g id="g196"><g id="g198"><g id="g200"><g id="g202"><path id="path204" d="M 6.226,27.291 24.092,27.288 24.246,16.824 6.105,16.812 6.226,27.291 z" style="fill:url(#linearGradient186);stroke:none"/></g></g></g></g></g></g></g><g id="g206"><g id="g214"><g id="g216" clip-path="url(#clipPath210)" style="opacity:.99215698"><g id="g218" transform="translate(6.2256,27.291)"><path id="path220" d="M 0,0 17.866,-0.003 18.02,-10.467 -0.121,-10.479 0,0 z" style="fill:none;stroke:#2d6582;stroke-width:1;stroke-linecap:butt;stroke-linejoin:miter;stroke-miterlimit:4;stroke-opacity:1;stroke-dasharray:none"/></g></g></g></g><g id="g222"><g id="g230"><g id="g232" clip-path="url(#clipPath226)" style="opacity:.99215698"><g id="g234" transform="translate(11.2749,22.8828)"><path id="path236" d="M 0,0 11.056,-0.021 11.096,-1.107 0.012,-1.117 0,0 z" style="fill:#333b4e;fill-opacity:1;fill-rule:nonzero;stroke:none"/></g></g></g></g><g id="g238"><g id="g246"><g id="g248" clip-path="url(#clipPath242)" style="opacity:.99000501"><g id="g250" transform="translate(11.2749,22.8828)"><path id="path252" d="M 0,0 11.056,-0.021 11.096,-1.107 0.012,-1.117 0,0 z" style="fill:none;stroke:#2d6683;stroke-width:1;stroke-linecap:butt;stroke-linejoin:miter;stroke-miterlimit:4;stroke-opacity:1;stroke-dasharray:none"/></g></g></g></g><g id="g254"><g id="g262"><g id="g264" clip-path="url(#clipPath258)" style="opacity:.99215698"><g id="g266" transform="translate(14.4185,3.7637)"><path id="path268" d="M 0,0 -3.279,-0.066 -3.284,6.537 -0.01,6.474 0,0 z" style="fill:#333b4e;fill-opacity:1;fill-rule:nonzero;stroke:none"/></g></g></g></g></g></g><g id="g270"><g id="g272" clip-path="url(#clipPath274)"><g id="g278"><g id="g304" mask="url(#mask292)"><g id="g306"><path id="path314" d="M 6.474,27.053 23.825,27.021 23.887,25.315 6.492,25.3 6.474,27.053 z" style="fill:url(#linearGradient308);stroke:none"/></g></g></g></g></g><g id="g316"><g id="g318" clip-path="url(#clipPath320)"><g id="g324"><g id="g332"><g id="g334" clip-path="url(#clipPath328)" style="opacity:.99215698"><g id="g336" transform="translate(6.4736,27.0527)"><path id="path338" d="M 0,0 17.351,-0.032 17.414,-1.737 0.019,-1.753 0,0 z" style="fill:none;stroke:#5d2e2d;stroke-width:1;stroke-linecap:butt;stroke-linejoin:miter;stroke-miterlimit:4;stroke-opacity:1;stroke-dasharray:none"/></g></g></g></g><g id="g340"><g id="g348"><g id="g350" clip-path="url(#clipPath344)" style="opacity:.99215698"><g id="g352" transform="translate(11.2749,20.3555)"><path id="path354" d="M 0,0 11.056,-0.02 11.096,-1.106 0.012,-1.116 0,0 z" style="fill:#333b4e;fill-opacity:1;fill-rule:nonzero;stroke:none"/></g></g></g></g><g id="g356"><g id="g364"><g id="g366" clip-path="url(#clipPath360)" style="opacity:.99000501"><g id="g368" transform="translate(11.2749,20.3555)"><path id="path370" d="M 0,0 11.056,-0.02 11.096,-1.106 0.012,-1.116 0,0 z" style="fill:none;stroke:#2d6683;stroke-width:1;stroke-linecap:butt;stroke-linejoin:miter;stroke-miterlimit:4;stroke-opacity:1;stroke-dasharray:none"/></g></g></g></g><g id="g372"><g id="g380"><g id="g382" clip-path="url(#clipPath376)" style="opacity:.99215698"><g id="g384" transform="translate(26.9277,23.8594)"><path id="path386" d="M 0,0 -1.639,0.063 -1.642,1.777 -0.004,1.793 0,0 z" style="fill:#fff;fill-opacity:1;fill-rule:nonzero;stroke:none"/></g></g></g></g><g id="g388"><g id="g396"><g id="g398" clip-path="url(#clipPath392)" style="opacity:.99215698"><g id="g400" transform="translate(26.9277,23.8594)"><path id="path402" d="M 0,0 -1.639,0.063 -1.642,1.777 -0.004,1.793 0,0 z" style="fill:none;stroke:#333b4e;stroke-width:1;stroke-linecap:butt;stroke-linejoin:miter;stroke-miterlimit:4;stroke-opacity:1;stroke-dasharray:none"/></g></g></g></g></g></g></g></svg>