<svg xmlns="http://www.w3.org/2000/svg" xmlns:svg="http://www.w3.org/2000/svg" id="svg2" width="37.5" height="37.5" version="1.1" xml:space="preserve"><metadata id="metadata8"/><defs id="defs6"><linearGradient id="linearGradient32" x1="0" x2="1" y1="0" y2="0" gradientTransform="matrix(-39.873627,26.624085,26.624085,39.873627,35.064941,1.0336914)" gradientUnits="userSpaceOnUse" spreadMethod="pad"><stop id="stop34" offset="0" style="stop-color:#ba3125;stop-opacity:1"/><stop id="stop36" offset=".834" style="stop-color:#e7b9a4;stop-opacity:1"/><stop id="stop38" offset=".834" style="stop-color:#e7b9a4;stop-opacity:1"/><stop id="stop40" offset="1" style="stop-color:#ba3125;stop-opacity:1"/></linearGradient><clipPath id="clipPath48"><path id="path50" d="M 0,30 30,30 30,0 0,0 0,30 z"/></clipPath></defs><g id="g10" transform="matrix(1.25,0,0,-1.25,0,37.5)"><g id="g12" transform="translate(26.5449,27.375)"><path id="path14" d="m 0,0 0,-11.42 -10.34,0 0,-10.33 -13.5,0 0,19.75 13.5,0 0,2 L 0,0 z" style="fill:#ba3125;fill-opacity:1;fill-rule:nonzero;stroke:none"/></g><g id="g16" transform="translate(26.5449,27.375)"><path id="path18" d="m 0,0 0,-11.42 -10.34,0 0,-10.33 -13.5,0 0,19.75 13.5,0 0,2 L 0,0 z" style="fill:none;stroke:#000;stroke-width:1;stroke-linecap:butt;stroke-linejoin:miter;stroke-miterlimit:10;stroke-opacity:1;stroke-dasharray:none"/></g><g id="g20"><g id="g22"><g id="g28"><g id="g30"><path id="path42" d="m 26.541,5.542 -23.833,0 2.167,16.833 23.833,0 -2.167,-16.833 z" style="fill:url(#linearGradient32);stroke:none"/></g></g></g></g><g id="g44"><g id="g46" clip-path="url(#clipPath48)"><g id="g52" transform="translate(26.541,5.5415)"><path id="path54" d="m 0,0 -23.833,0 2.167,16.833 23.833,0 L 0,0 z" style="fill:none;stroke:#000;stroke-width:1;stroke-linecap:butt;stroke-linejoin:miter;stroke-miterlimit:10;stroke-opacity:1;stroke-dasharray:none"/></g></g></g></g></svg>