<svg xmlns="http://www.w3.org/2000/svg" xmlns:svg="http://www.w3.org/2000/svg" id="svg2" width="37.5" height="37.5" version="1.1" xml:space="preserve"><metadata id="metadata8"/><defs id="defs6"><clipPath id="clipPath16"><path id="path18" d="M 0,30 30,30 30,0 0,0 0,30 z"/></clipPath><clipPath id="clipPath24"><path id="path26" d="m 2.8291,28.0825 24.0039,0 0,-26.07762 -24.0039,0 0,26.07762 z"/></clipPath><clipPath id="clipPath56"><path id="path58" d="m 30,60 29.999,0 0,-30 L 30,30 30,60 z"/></clipPath></defs><g id="g10" transform="matrix(1.25,0,0,-1.25,0,37.5)"><g id="g12"><g id="g14" clip-path="url(#clipPath16)"><g id="g20"><g id="g28"><g id="g30" clip-path="url(#clipPath24)"><g id="g32" transform="translate(20.5977,19.3818)"><path id="path34" d="m 0,0 c 3.615,-1.126 6.235,-4.504 6.235,-8.487 0,-4.908 -3.983,-8.89 -8.89,-8.89 -4.848,0 -8.783,3.876 -8.878,8.7 0.842,-0.261 1.73,-0.403 2.655,-0.403 4.907,0 8.89,3.983 8.89,8.891 0,0.059 0,0.13 -0.012,0.189" style="fill:#ba3125;fill-opacity:1;fill-rule:nonzero;stroke:none"/></g><g id="g36" transform="translate(20.5977,19.3818)"><path id="path38" d="m 0.63427331,0.58157148 c 0.0133199,-0.0669089 0.0133199,-0.14742636 0.0133199,-0.21433525 0,-5.56591233 -4.42110121,-10.08282943 -9.86783571,-10.08282943 -1.0267435,0 -2.0124165,0.1610349 -2.9470305,0.4570217 -0.01332,0.068043 -0.01332,0.1485604 -0.01332,0.2154693 0,5.5647783 4.419991,10.0816954 9.8678355,10.0816954 1.0267433,0 2.01241688,-0.16103493 2.9470308,-0.45702172" style="fill:#ba3125;fill-opacity:1;fill-rule:nonzero;stroke:none"/></g><g id="g40" transform="translate(20.5977,19.3818)"><path id="path42" d="m 0,0 c -0.842,0.261 -1.73,0.403 -2.655,0.403 -4.908,0 -8.89,-3.983 -8.89,-8.89 0,-0.059 0,-0.13 0.012,-0.19 -3.615,1.127 -6.236,4.505 -6.236,8.488 0,4.907 3.984,8.89 8.891,8.89 C -4.03,8.701 -0.095,4.825 0,0" style="fill:#ba3125;fill-opacity:1;fill-rule:nonzero;stroke:none"/></g></g></g></g><g id="g44" transform="translate(20.5977,19.3818)"><path id="path46" d="m 0,0 c 3.615,-1.126 6.235,-4.504 6.235,-8.487 0,-4.908 -3.983,-8.89 -8.89,-8.89 -4.848,0 -8.783,3.876 -8.878,8.7" style="fill:none;stroke:#000;stroke-width:1;stroke-linecap:round;stroke-linejoin:miter;stroke-miterlimit:10;stroke-opacity:1;stroke-dasharray:none"/></g><g id="g48" transform="translate(9.0645,10.7051)"><path id="path50" d="m 0,0 c -3.615,1.126 -6.235,4.504 -6.235,8.487 0,4.908 3.983,8.89 8.89,8.89 4.848,0 8.783,-3.876 8.878,-8.7" style="fill:none;stroke:#000;stroke-width:1;stroke-linecap:round;stroke-linejoin:miter;stroke-miterlimit:10;stroke-opacity:1;stroke-dasharray:none"/></g><g id="g52"><g id="g60"><g id="g62" clip-path="url(#clipPath56)"><g id="g64" transform="translate(45.6543,36)"><path id="path66" d="m 0,0 c 4.929,0 8.929,4 8.929,8.929 0,4.928 -4,8.928 -8.929,8.928 -4.928,0 -8.928,-4 -8.928,-8.928 C -8.928,4 -4.928,0 0,0 m 14.345,-6 -29.999,0 0,30 29.999,0 0,-30 z" style="fill:#ba3125;fill-opacity:1;fill-rule:nonzero;stroke:none"/></g></g></g></g></g></g></g></svg>