<svg xmlns="http://www.w3.org/2000/svg" xmlns:svg="http://www.w3.org/2000/svg" id="svg2" width="37.5" height="37.5" version="1.1" xml:space="preserve"><metadata id="metadata8"/><defs id="defs6"><clipPath id="clipPath16"><path id="path18" d="M 0,30 30,30 30,0 0,0 0,30 z"/></clipPath></defs><g id="g10" transform="matrix(1.25,0,0,-1.25,0,37.5)"><g id="g12"><g id="g14" clip-path="url(#clipPath16)"><g id="g20" transform="translate(29,11.0313)"><path id="path22" d="m 0,0 c 0,-4.401 -3.736,-7.969 -8.344,-7.969 -4.608,0 -8.344,3.568 -8.344,7.969 0,4.401 3.736,7.969 8.344,7.969 C -3.736,7.969 0,4.401 0,0" style="fill:#bec0c2;fill-opacity:1;fill-rule:nonzero;stroke:none"/></g><g id="g24" transform="translate(4.8999,6.8682)"><path id="path26" d="M 0,0 C 2.902,0 2.902,4.5 0,4.5 -2.902,4.5 -2.902,0 0,0" style="fill:#737577;fill-opacity:1;fill-rule:nonzero;stroke:none"/></g><g id="g28" transform="translate(16.9375,9.25)"><path id="path30" d="M 0,0 C 3.869,0 3.869,6 0,6 -3.869,6 -3.869,0 0,0" style="fill:#ba3125;fill-opacity:1;fill-rule:nonzero;stroke:none"/></g><g id="g32" transform="translate(22.1064,4.6802)"><path id="path34" d="M 0,0 C 3.869,0 3.869,6 0,6 -3.869,6 -3.869,0 0,0" style="fill:#ba3125;fill-opacity:1;fill-rule:nonzero;stroke:none"/></g><g id="g36" transform="translate(23.854,11.3022)"><path id="path38" d="M 0,0 C 3.869,0 3.869,6 0,6 -3.869,6 -3.869,0 0,0" style="fill:#ba3125;fill-opacity:1;fill-rule:nonzero;stroke:none"/></g><g id="g40" transform="translate(23.1904,24.2212)"><path id="path42" d="M 0,0 C 2.902,0 2.902,4.5 0,4.5 -2.902,4.5 -2.902,0 0,0" style="fill:#737577;fill-opacity:1;fill-rule:nonzero;stroke:none"/></g><g id="g44" transform="translate(16.772,20.833)"><path id="path46" d="M 0,0 C 2.902,0 2.902,4.5 0,4.5 -2.902,4.5 -2.902,0 0,0" style="fill:#737577;fill-opacity:1;fill-rule:nonzero;stroke:none"/></g><g id="g48" transform="translate(9.4526,13.4902)"><path id="path50" d="M 0,0 C 2.902,0 2.902,4.5 0,4.5 -2.902,4.5 -2.902,0 0,0" style="fill:#737577;fill-opacity:1;fill-rule:nonzero;stroke:none"/></g><g id="g52" transform="translate(-3.7798,2.98)"><path id="path54" d="m 0,0 c -1.48,-1.3 -3.39,-1.98 -5.5,-1.98 -3.26,0 -6.66,1.66 -9.09,4.45 -0.82,0.95 -1.5,1.97 -2.03,3.05 -0.42,0.86 -0.74,1.75 -0.95,2.66 -0.16,0.69 -0.26,1.39 -0.29,2.09 -0.12,2.83 0.87,5.32 2.79,6.99 1.48,1.3 3.38,1.98 5.49,1.98 0.35,0 0.71,-0.02 1.07,-0.06 0.51,-0.73 0.92,-1.5 1.23,-2.27 -0.76,0.22 -1.54,0.33 -2.3,0.33 -1.62,0 -3.07,-0.51 -4.18,-1.49 -1.45,-1.26 -2.19,-3.18 -2.1,-5.4 0.05,-1.08 0.29,-2.17 0.71,-3.22 0.31,-0.79 0.72,-1.55 1.23,-2.27 0.25,-0.37 0.53,-0.72 0.83,-1.07 2.06,-2.36 4.9,-3.77 7.59,-3.77 1.62,0 3.07,0.51 4.18,1.49 3.06,2.67 2.76,8.04 -0.67,11.97 -0.85,0.97 -1.83,1.78 -2.88,2.4 -0.21,0.89 -0.52,1.77 -0.94,2.64 1.97,-0.73 3.83,-2.02 5.33,-3.73 C 3.67,10.03 3.89,3.4 0,0" style="fill:#ba3125;fill-opacity:1;fill-rule:nonzero;stroke:none"/></g><g id="g56" transform="translate(-3.7798,2.98)"><path id="path58" d="m 0,0 c -1.48,-1.3 -3.39,-1.98 -5.5,-1.98 -3.26,0 -6.66,1.66 -9.09,4.45 -0.82,0.95 -1.5,1.97 -2.03,3.05 -0.42,0.86 -0.74,1.75 -0.95,2.66 -0.16,0.69 -0.26,1.39 -0.29,2.09 -0.12,2.83 0.87,5.32 2.79,6.99 1.48,1.3 3.38,1.98 5.49,1.98 0.35,0 0.71,-0.02 1.07,-0.06 0.51,-0.73 0.92,-1.5 1.23,-2.27 -0.76,0.22 -1.54,0.33 -2.3,0.33 -1.62,0 -3.07,-0.51 -4.18,-1.49 -1.45,-1.26 -2.19,-3.18 -2.1,-5.4 0.05,-1.08 0.29,-2.17 0.71,-3.22 0.31,-0.79 0.72,-1.55 1.23,-2.27 0.25,-0.37 0.53,-0.72 0.83,-1.07 2.06,-2.36 4.9,-3.77 7.59,-3.77 1.62,0 3.07,0.51 4.18,1.49 3.06,2.67 2.76,8.04 -0.67,11.97 -0.85,0.97 -1.83,1.78 -2.88,2.4 -0.21,0.89 -0.52,1.77 -0.94,2.64 1.97,-0.73 3.83,-2.02 5.33,-3.73 C 3.67,10.03 3.89,3.4 0,0 z" style="fill:none;stroke:#000;stroke-width:1;stroke-linecap:butt;stroke-linejoin:miter;stroke-miterlimit:4;stroke-opacity:1;stroke-dasharray:none"/></g></g></g></g></svg>