<svg xmlns="http://www.w3.org/2000/svg" xmlns:svg="http://www.w3.org/2000/svg" id="svg2" width="37.501" height="37.5" version="1.1" xml:space="preserve"><metadata id="metadata8"/><defs id="defs6"><clipPath id="clipPath16"><path id="path18" d="M 0,30 30,30 30,0 0,0 0,30 z"/></clipPath></defs><g id="g10" transform="matrix(1.25,0,0,-1.25,0,37.5)"><g id="g12"><g id="g14" clip-path="url(#clipPath16)"><g id="g20" transform="translate(8.3257,11.25)"><path id="path22" d="m 0,0 0,-7.5 c 0,-0.572 0.478,-1.05 1.05,-1.05 l 11.25,0 c 0.572,0 1.05,0.478 1.05,1.05 l 0,11.25 c 0,0.572 -0.478,1.05 -1.05,1.05 l -3.75,0 C 8.899,4.45 9.25,4.1 9.6,3.75 L 9.6,15 c 0,1.354 -2.1,1.354 -2.1,0 L 7.5,3.75 C 7.5,3.178 7.978,2.7 8.55,2.7 l 3.75,0 c -0.35,0.35 -0.7,0.7 -1.05,1.05 l 0,-11.25 c 0.35,0.35 0.7,0.7 1.05,1.05 l -11.25,0 C 1.399,-6.8 1.75,-7.15 2.1,-7.5 L 2.1,0 C 2.1,1.354 0,1.354 0,0" style="fill:#ba3125;fill-opacity:1;fill-rule:nonzero;stroke:none"/></g><g id="g24" transform="translate(23.3257,18.75)"><path id="path26" d="m 0,0 0,-3.75 c 0.35,0.35 0.7,0.7 1.05,1.05 l -3.75,0 c -1.355,0 -1.355,-2.1 0,-2.1 l 3.75,0 c 0.572,0 1.05,0.478 1.05,1.05 L 2.1,0 C 2.1,1.354 0,1.354 0,0" style="fill:#ba3125;fill-opacity:1;fill-rule:nonzero;stroke:none"/></g><g id="g28" transform="translate(4.5757,22.5)"><path id="path30" d="m 0,0 0,-11.25 c 0,-0.572 0.478,-1.05 1.05,-1.05 l 7.5,0 c 0.572,0 1.05,0.478 1.05,1.05 L 9.6,0 c 0,1.354 -2.1,1.354 -2.1,0 l 0,-11.25 c 0.35,0.35 0.7,0.7 1.05,1.05 l -7.5,0 c 0.349,-0.35 0.7,-0.7 1.05,-1.05 L 2.1,0 C 2.1,1.354 0,1.354 0,0" style="fill:#000;fill-opacity:1;fill-rule:nonzero;stroke:none"/></g></g></g></g></svg>