<svg xmlns="http://www.w3.org/2000/svg" xmlns:svg="http://www.w3.org/2000/svg" id="svg2" width="37.5" height="37.5" version="1.1" xml:space="preserve"><metadata id="metadata8"/><defs id="defs6"><clipPath id="clipPath16"><path id="path18" d="m 7.693,27.179 3.023,0 0,-7.104 -3.023,0 0,7.104 z"/></clipPath><linearGradient id="linearGradient28" x1="0" x2="1" y1="0" y2="0" gradientTransform="matrix(1.3738251,-2.2193756,0.9445038,3.2281647,8.1333008,25.34375)" gradientUnits="userSpaceOnUse" spreadMethod="pad"><stop id="stop30" offset="0" style="stop-color:#fff;stop-opacity:.99217212"/><stop id="stop32" offset="1" style="stop-color:#fff;stop-opacity:.95295644"/></linearGradient><mask id="mask34"><g id="g36"><g id="g38"><g id="g40"><g id="g42"><path id="path44" d="m -32768,32767 65535,0 0,-65534 -65535,0 0,65534 z" style="fill:url(#linearGradient28);stroke:none"/></g></g></g></g></mask><linearGradient id="linearGradient50" x1="0" x2="1" y1="0" y2="0" gradientTransform="matrix(1.3738251,-2.2193756,0.9445038,3.2281647,8.1333008,25.34375)" gradientUnits="userSpaceOnUse" spreadMethod="pad"><stop id="stop52" offset="0" style="stop-color:#fcdeb4;stop-opacity:1"/><stop id="stop54" offset="1" style="stop-color:#efab35;stop-opacity:1"/></linearGradient><clipPath id="clipPath62"><path id="path64" d="M 0,30 30,30 30,0 0,0 0,30 z"/></clipPath><clipPath id="clipPath70"><path id="path72" d="m 7.19287,27.6787 4.02343,0 0,-8.104 -4.02343,0 0,8.104 z"/></clipPath><clipPath id="clipPath84"><path id="path86" d="m 6.07666,24.8369 18.25294,0 0,-23.83495 -18.25294,0 0,23.83495 z"/></clipPath><clipPath id="clipPath100"><path id="path102" d="m 6.983,1.907 c 3.755,0 3.755,0.103 3.755,0.103 l 0,0 0,10.859 -3.654,2.74 C 6.88,15.507 6.983,1.806 6.983,1.907"/></clipPath><linearGradient id="linearGradient112" x1="0" x2="1" y1="0" y2="0" gradientTransform="matrix(3.0646667,-0.1070099,0.0295258,11.107223,6.8598633,8.78125)" gradientUnits="userSpaceOnUse" spreadMethod="pad"><stop id="stop114" offset="0" style="stop-color:#fff;stop-opacity:.99217212"/><stop id="stop116" offset="1" style="stop-color:#fff;stop-opacity:.99217212"/></linearGradient><mask id="mask118"><g id="g120"><g id="g122"><g id="g124"><g id="g126"><path id="path128" d="m -32768,32767 65535,0 0,-65534 -65535,0 0,65534 z" style="fill:url(#linearGradient112);stroke:none"/></g></g></g></g></mask><linearGradient id="linearGradient134" x1="0" x2="1" y1="0" y2="0" gradientTransform="matrix(3.0646667,-0.1070099,0.0295258,11.107223,6.8598633,8.78125)" gradientUnits="userSpaceOnUse" spreadMethod="pad"><stop id="stop136" offset="0" style="stop-color:#7f7e7e;stop-opacity:1"/><stop id="stop138" offset="1" style="stop-color:#fff;stop-opacity:1"/></linearGradient><clipPath id="clipPath146"><path id="path148" d="m 6.983,15.609 3.755,-2.74 5.989,5.378 -1.828,5.38 -7.916,-8.018 z"/></clipPath><linearGradient id="linearGradient158" x1="0" x2="1" y1="0" y2="0" gradientTransform="matrix(4.2566528,-3.5292816,3.1963348,4.7000275,9.3442383,20.875)" gradientUnits="userSpaceOnUse" spreadMethod="pad"><stop id="stop160" offset="0" style="stop-color:#fff;stop-opacity:.99217212"/><stop id="stop162" offset="1" style="stop-color:#fff;stop-opacity:.99217212"/></linearGradient><mask id="mask164"><g id="g166"><g id="g168"><g id="g170"><g id="g172"><path id="path174" d="m -32768,32767 65535,0 0,-65534 -65535,0 0,65534 z" style="fill:url(#linearGradient158);stroke:none"/></g></g></g></g></mask><linearGradient id="linearGradient180" x1="0" x2="1" y1="0" y2="0" gradientTransform="matrix(4.2566528,-3.5292816,3.1963348,4.7000275,9.3442383,20.875)" gradientUnits="userSpaceOnUse" spreadMethod="pad"><stop id="stop182" offset="0" style="stop-color:#7f7e7e;stop-opacity:1"/><stop id="stop184" offset="1" style="stop-color:#fff;stop-opacity:1"/></linearGradient><clipPath id="clipPath192"><path id="path194" d="m 14.087,18.958 5.48,-6.393 3.755,3.247 -7.815,7.916 -1.42,-4.77 z"/></clipPath><linearGradient id="linearGradient204" x1="0" x2="1" y1="0" y2="0" gradientTransform="matrix(-7.737854,-6.3895874,5.285965,-9.3533936,23.375488,22.96875)" gradientUnits="userSpaceOnUse" spreadMethod="pad"><stop id="stop206" offset="0" style="stop-color:#fff;stop-opacity:.99217212"/><stop id="stop208" offset="1" style="stop-color:#fff;stop-opacity:.99217212"/></linearGradient><mask id="mask210"><g id="g212"><g id="g214"><g id="g216"><g id="g218"><path id="path220" d="m -32768,32767 65535,0 0,-65534 -65535,0 0,65534 z" style="fill:url(#linearGradient204);stroke:none"/></g></g></g></g></mask><linearGradient id="linearGradient226" x1="0" x2="1" y1="0" y2="0" gradientTransform="matrix(-7.737854,-6.3895874,5.285965,-9.3533936,23.375488,22.96875)" gradientUnits="userSpaceOnUse" spreadMethod="pad"><stop id="stop228" offset="0" style="stop-color:#7f7e7e;stop-opacity:1"/><stop id="stop230" offset="1" style="stop-color:#fff;stop-opacity:1"/></linearGradient><clipPath id="clipPath238"><path id="path240" d="m 19.363,12.869 0.102,-10.962 4.06,0 -0.102,14.007 -4.06,-3.045 z"/></clipPath><linearGradient id="linearGradient250" x1="0" x2="1" y1="0" y2="0" gradientTransform="matrix(-4.5943909,0.1096802,-0.0325928,-15.463974,24.391113,8.84375)" gradientUnits="userSpaceOnUse" spreadMethod="pad"><stop id="stop252" offset="0" style="stop-color:#fff;stop-opacity:.99217212"/><stop id="stop254" offset="1" style="stop-color:#fff;stop-opacity:.99217212"/></linearGradient><mask id="mask256"><g id="g258"><g id="g260"><g id="g262"><g id="g264"><path id="path266" d="m -32768,32767 65535,0 0,-65534 -65535,0 0,65534 z" style="fill:url(#linearGradient250);stroke:none"/></g></g></g></g></mask><linearGradient id="linearGradient272" x1="0" x2="1" y1="0" y2="0" gradientTransform="matrix(-4.5943909,0.1096802,-0.0325928,-15.463974,24.391113,8.84375)" gradientUnits="userSpaceOnUse" spreadMethod="pad"><stop id="stop274" offset="0" style="stop-color:#7f7e7e;stop-opacity:1"/><stop id="stop276" offset="1" style="stop-color:#fff;stop-opacity:1"/></linearGradient><clipPath id="clipPath284"><path id="path286" d="m 11.041,11.955 0.103,-9.743 c 0,0.101 8.018,0 8.018,0 l 0,0 0,9.743 c 0,2.03 -1.371,3.959 -4.163,3.959 l 0,0 c -2.689,0 -3.958,-1.625 -3.958,-3.959"/></clipPath><radialGradient id="radialGradient296" cx="0" cy="0" r="1" fx="0" fy="0" gradientTransform="matrix(7.1746521,0,0,15.021713,12.609863,14.125)" gradientUnits="userSpaceOnUse" spreadMethod="pad"><stop id="stop298" offset="0" style="stop-color:#fff;stop-opacity:.99217212"/><stop id="stop300" offset="1" style="stop-color:#fff;stop-opacity:.95295644"/></radialGradient><mask id="mask302"><g id="g304"><g id="g306"><g id="g308"><g id="g310"><path id="path312" d="m -32767,32767 65534,0 0,-65534 -65534,0 0,65534 z" style="fill:url(#radialGradient296);stroke:none"/></g></g></g></g></mask><radialGradient id="radialGradient318" cx="0" cy="0" r="1" fx="0" fy="0" gradientTransform="matrix(7.1746521,0,0,15.021713,12.609863,14.125)" gradientUnits="userSpaceOnUse" spreadMethod="pad"><stop id="stop320" offset="0" style="stop-color:#fcdeb4;stop-opacity:1"/><stop id="stop322" offset="1" style="stop-color:#efab35;stop-opacity:1"/></radialGradient><clipPath id="clipPath330"><path id="path332" d="M 0,30 30,30 30,0 0,0 0,30 z"/></clipPath><clipPath id="clipPath338"><path id="path340" d="m 10.5415,16.4136 9.1201,0 0,-14.7012 -9.1201,0 0,14.7012 z"/></clipPath><clipPath id="clipPath354"><path id="path356" d="m 1.603,14.899 1.929,-2.132 9.54,9.135 c 0,0 4.364,0.101 4.465,0.101 l 0,0 c 0.102,0 8.83,-8.728 8.83,-8.728 l 0,0 2.03,2.131 L 15.305,28.498 1.603,14.899 z"/></clipPath><linearGradient id="linearGradient366" x1="0" x2="1" y1="0" y2="0" gradientTransform="matrix(6.8474121,-1.9652557,3.3472748,4.0202484,7.1879883,21.375)" gradientUnits="userSpaceOnUse" spreadMethod="pad"><stop id="stop368" offset="0" style="stop-color:#fff;stop-opacity:.99217212"/><stop id="stop370" offset="1" style="stop-color:#fff;stop-opacity:.95295644"/></linearGradient><mask id="mask372"><g id="g374"><g id="g376"><g id="g378"><g id="g380"><path id="path382" d="m -32768,32767 65535,0 0,-65534 -65535,0 0,65534 z" style="fill:url(#linearGradient366);stroke:none"/></g></g></g></g></mask><linearGradient id="linearGradient388" x1="0" x2="1" y1="0" y2="0" gradientTransform="matrix(6.8474121,-1.9652557,3.3472748,4.0202484,7.1879883,21.375)" gradientUnits="userSpaceOnUse" spreadMethod="pad"><stop id="stop390" offset="0" style="stop-color:#cd5d74;stop-opacity:1"/><stop id="stop392" offset="1" style="stop-color:#ab3446;stop-opacity:1"/></linearGradient><clipPath id="clipPath400"><path id="path402" d="M 0,30 30,30 30,0 0,0 0,30 z"/></clipPath><clipPath id="clipPath408"><path id="path410" d="m 0.912109,29.2041 28.183591,0 0,-17.1538 -28.183591,0 0,17.1538 z"/></clipPath></defs><g id="g10" transform="matrix(1.25,0,0,-1.25,0,37.5)"><g id="g12"><g id="g14" clip-path="url(#clipPath16)"><g id="g20"><g id="g46" mask="url(#mask34)"><g id="g48"><path id="path56" d="m 7.693,27.179 3.023,0 0,-7.104 -3.023,0 0,7.104 z" style="fill:url(#linearGradient50);stroke:none"/></g></g></g></g></g><g id="g58"><g id="g60" clip-path="url(#clipPath62)"><g id="g66"><g id="g74"><g id="g76" clip-path="url(#clipPath70)" style="opacity:.99215698"><path id="path78" d="m 7.693,27.179 3.023,0 0,-7.104 -3.023,0 0,7.104 z" style="fill:none;stroke:#5d2e2d;stroke-width:1;stroke-linecap:butt;stroke-linejoin:miter;stroke-miterlimit:4;stroke-opacity:1;stroke-dasharray:none"/></g></g></g><g id="g80"><g id="g88"><g id="g90" clip-path="url(#clipPath84)" style="opacity:.98823499"><g id="g92" transform="translate(6.5767,1.502)"><path id="path94" d="M 0,0 C 17.151,0.101 17.253,0 17.253,0 L 17.151,14.412 8.626,22.835 0.101,14.208 C 0,14.107 0.101,0.101 0,0 z" style="fill:none;stroke:#30535a;stroke-width:1;stroke-linecap:butt;stroke-linejoin:round;stroke-miterlimit:4;stroke-opacity:1;stroke-dasharray:none"/></g></g></g></g></g></g><g id="g96"><g id="g98" clip-path="url(#clipPath100)"><g id="g104"><g id="g130" mask="url(#mask118)"><g id="g132"><path id="path140" d="m 6.983,1.907 c 3.755,0 3.755,0.103 3.755,0.103 l 0,0 0,10.859 -3.654,2.74 C 6.88,15.507 6.983,1.806 6.983,1.907" style="fill:url(#linearGradient134);stroke:none"/></g></g></g></g></g><g id="g142"><g id="g144" clip-path="url(#clipPath146)"><g id="g150"><g id="g176" mask="url(#mask164)"><g id="g178"><path id="path186" d="m 6.983,15.609 3.755,-2.74 5.989,5.378 -1.828,5.38 -7.916,-8.018 z" style="fill:url(#linearGradient180);stroke:none"/></g></g></g></g></g><g id="g188"><g id="g190" clip-path="url(#clipPath192)"><g id="g196"><g id="g222" mask="url(#mask210)"><g id="g224"><path id="path232" d="m 14.087,18.958 5.48,-6.393 3.755,3.247 -7.815,7.916 -1.42,-4.77 z" style="fill:url(#linearGradient226);stroke:none"/></g></g></g></g></g><g id="g234"><g id="g236" clip-path="url(#clipPath238)"><g id="g242"><g id="g268" mask="url(#mask256)"><g id="g270"><path id="path278" d="m 19.363,12.869 0.102,-10.962 4.06,0 -0.102,14.007 -4.06,-3.045 z" style="fill:url(#linearGradient272);stroke:none"/></g></g></g></g></g><g id="g280"><g id="g282" clip-path="url(#clipPath284)"><g id="g288"><g id="g314" mask="url(#mask302)"><g id="g316"><path id="path324" d="m 11.041,11.955 0.103,-9.743 c 0,0.101 8.018,0 8.018,0 l 0,0 0,9.743 c 0,2.03 -1.371,3.959 -4.163,3.959 l 0,0 c -2.689,0 -3.958,-1.625 -3.958,-3.959" style="fill:url(#radialGradient318);stroke:none"/></g></g></g></g></g><g id="g326"><g id="g328" clip-path="url(#clipPath330)"><g id="g334"><g id="g342"><g id="g344" clip-path="url(#clipPath338)" style="opacity:.99215698"><g id="g346" transform="translate(11.144,2.2124)"><path id="path348" d="m 0,0 -0.103,9.743 c 0,2.334 1.269,3.958 3.958,3.958 2.792,0 4.163,-1.929 4.163,-3.958 L 8.018,0 C 8.018,0 0,0.101 0,0 z" style="fill:none;stroke:#5d2e2d;stroke-width:1;stroke-linecap:butt;stroke-linejoin:round;stroke-miterlimit:4;stroke-opacity:1;stroke-dasharray:none"/></g></g></g></g></g></g><g id="g350"><g id="g352" clip-path="url(#clipPath354)"><g id="g358"><g id="g384" mask="url(#mask372)"><g id="g386"><path id="path394" d="m 1.603,14.899 1.929,-2.132 9.54,9.135 c 0,0 4.364,0.101 4.465,0.101 l 0,0 c 0.102,0 8.83,-8.728 8.83,-8.728 l 0,0 2.03,2.131 L 15.305,28.498 1.603,14.899 z" style="fill:url(#linearGradient388);stroke:none"/></g></g></g></g></g><g id="g396"><g id="g398" clip-path="url(#clipPath400)"><g id="g404"><g id="g412"><g id="g414" clip-path="url(#clipPath408)" style="opacity:.99215698"><g id="g416" transform="translate(3.5317,12.7671)"><path id="path418" d="m 0,0 9.54,9.134 c 0,0 4.364,0.102 4.466,0.102 0.101,0 8.83,-8.728 8.83,-8.728 L 24.865,2.639 11.773,15.731 -1.929,2.132 0,0 z" style="fill:none;stroke:#5d2e2d;stroke-width:1;stroke-linecap:butt;stroke-linejoin:miter;stroke-miterlimit:4;stroke-opacity:1;stroke-dasharray:none"/></g></g></g></g></g></g></g></svg>