<svg xmlns="http://www.w3.org/2000/svg" xmlns:svg="http://www.w3.org/2000/svg" id="svg2" width="37.5" height="37.5" version="1.1" xml:space="preserve"><metadata id="metadata8"/><defs id="defs6"><clipPath id="clipPath16"><path id="path18" d="M 0,30 30,30 30,0 0,0 0,30 z"/></clipPath><clipPath id="clipPath24"><path id="path26" d="m 2.15723,28.0845 17.76857,0 0,-17.3775 -17.76857,0 0,17.3775 z"/></clipPath></defs><g id="g10" transform="matrix(1.25,0,0,-1.25,0,37.5)"><g id="g12"><g id="g14" clip-path="url(#clipPath16)"><g id="g20"><g id="g28"><g id="g30" clip-path="url(#clipPath24)"><g id="g32" transform="translate(19.9258,19.3838)"><path id="path34" d="m 0,0 c -0.842,0.261 -1.73,0.403 -2.655,0.403 -4.908,0 -8.891,-3.983 -8.891,-8.89 0,-0.059 0,-0.131 0.012,-0.19 -3.615,1.126 -6.235,4.505 -6.235,8.488 0,4.907 3.983,8.89 8.89,8.89 C -4.03,8.701 -0.095,4.824 0,0" style="fill:#ba3125;fill-opacity:1;fill-rule:nonzero;stroke:none"/></g></g></g></g><g id="g36" transform="translate(19.9258,19.3838)"><path id="path38" d="m 0,0 c 3.615,-1.126 6.234,-4.504 6.234,-8.487 0,-4.908 -3.982,-8.89 -8.889,-8.89 -4.849,0 -8.784,3.876 -8.879,8.7 -0.012,0.059 -0.012,0.131 -0.012,0.19 0,4.907 3.983,8.89 8.891,8.89 C -1.73,0.403 -0.842,0.261 0,0 z" style="fill:none;stroke:#000;stroke-width:1;stroke-linecap:butt;stroke-linejoin:miter;stroke-miterlimit:10;stroke-opacity:1;stroke-dasharray:none"/></g><g id="g40" transform="translate(8.3916,10.707)"><path id="path42" d="m 0,0 c -3.615,1.126 -6.234,4.504 -6.234,8.487 0,4.908 3.982,8.89 8.889,8.89 4.849,0 8.784,-3.876 8.879,-8.7" style="fill:none;stroke:#000;stroke-width:1;stroke-linecap:butt;stroke-linejoin:miter;stroke-miterlimit:10;stroke-opacity:1;stroke-dasharray:none"/></g></g></g></g></svg>