<svg xmlns="http://www.w3.org/2000/svg" xmlns:svg="http://www.w3.org/2000/svg" id="svg2" width="37.5" height="37.5" version="1.1" xml:space="preserve"><metadata id="metadata8"/><defs id="defs6"><linearGradient id="linearGradient24" x1="0" x2="1" y1="0" y2="0" gradientTransform="matrix(25.011719,0,0,-25.011719,2.4941406,14.670898)" gradientUnits="userSpaceOnUse" spreadMethod="pad"><stop id="stop26" offset="0" style="stop-color:#dfe2f2;stop-opacity:1"/><stop id="stop28" offset=".908" style="stop-color:#00b0f0;stop-opacity:1"/><stop id="stop30" offset="1" style="stop-color:#00b0f0;stop-opacity:1"/></linearGradient><clipPath id="clipPath38"><path id="path40" d="M 0,30 30,30 30,0 0,0 0,30 z"/></clipPath></defs><g id="g10" transform="matrix(1.25,0,0,-1.25,0,37.5)"><g id="g12"><g id="g14"><g id="g20"><g id="g22"><path id="path32" d="m 4.161,20.822 c 0,0 -1.667,-4.167 -1.667,-5.334 l 0,0 c 0,-1.165 0.667,-5.166 4.333,-5.5 l 0,0 c 3.667,-0.333 1.477,3.245 5.167,4.167 l 0,0 c 2,0.501 3.667,-2.167 5,-3.833 l 0,0 c 1.073,-1.34 4.667,-5.167 7.334,-4.666 l 0,0 c 2.666,0.499 3.973,5.791 2.666,12.332 l 0,0 c -0.333,1.667 -0.333,3 -1.833,3.667 l 0,0 c -1.429,0.634 -2.346,0.469 -3.327,0.303 l 0,0 c -0.8,-0.135 -1.643,-0.27 -2.839,0.03 l 0,0 c -1.557,0.39 -5.1,1.744 -8.51,1.744 l 0,0 c -2.432,0 -4.797,-0.69 -6.324,-2.91" style="fill:url(#linearGradient24);stroke:none"/></g></g></g></g><g id="g34"><g id="g36" clip-path="url(#clipPath38)"><g id="g42" transform="translate(4.1611,20.8223)"><path id="path44" d="M 0,0 C 3.667,5.333 12.167,1.833 14.833,1.166 17.5,0.5 18.407,1.985 21,0.833 c 1.5,-0.667 1.5,-2 1.833,-3.667 1.307,-6.541 0,-11.833 -2.666,-12.333 -2.667,-0.5 -6.262,3.327 -7.334,4.667 -1.333,1.666 -3,4.333 -5,3.833 -3.69,-0.923 -1.5,-4.5 -5.166,-4.167 C -1,-10.5 -1.667,-6.5 -1.667,-5.334 -1.667,-4.167 0,0 0,0 z" style="fill:none;stroke:#3c4694;stroke-width:1;stroke-linecap:round;stroke-linejoin:round;stroke-miterlimit:10;stroke-opacity:1;stroke-dasharray:none"/></g><g id="g46" transform="translate(18.7056,13.9258)"><path id="path48" d="M 0,0 z" style="fill:#bcd6f0;fill-opacity:1;fill-rule:nonzero;stroke:none"/></g><g id="g50" transform="translate(18.7056,13.9258)"><path id="path52" d="M 0,0 0,0 z" style="fill:none;stroke:#3c4694;stroke-width:1;stroke-linecap:butt;stroke-linejoin:miter;stroke-miterlimit:10;stroke-opacity:1;stroke-dasharray:none"/></g><g id="g54" transform="translate(5.6606,3.3447)"><path id="path56" d="M 0,0 C 1.935,0 1.935,3 0,3 -1.935,3 -1.935,0 0,0" style="fill:#737577;fill-opacity:1;fill-rule:nonzero;stroke:none"/></g><g id="g58" transform="translate(6.9814,12.5918)"><path id="path60" d="M 0,0 C 1.935,0 1.935,3 0,3 -1.935,3 -1.935,0 0,0" style="fill:#ba3125;fill-opacity:1;fill-rule:nonzero;stroke:none"/></g><g id="g62" transform="translate(12.2656,8.958)"><path id="path64" d="M 0,0 C 1.935,0 1.935,3 0,3 -1.935,3 -1.935,0 0,0" style="fill:#737577;fill-opacity:1;fill-rule:nonzero;stroke:none"/></g><g id="g66" transform="translate(12.7612,18.5361)"><path id="path68" d="M 0,0 C 1.935,0 1.935,3 0,3 -1.935,3 -1.935,0 0,0" style="fill:#ba3125;fill-opacity:1;fill-rule:nonzero;stroke:none"/></g><g id="g70" transform="translate(18.7056,18.042)"><path id="path72" d="M 0,0 C 1.935,0 1.935,3 0,3 -1.935,3 -1.935,0 0,0" style="fill:#ba3125;fill-opacity:1;fill-rule:nonzero;stroke:none"/></g><g id="g74" transform="translate(18.7056,12.4258)"><path id="path76" d="M 0,0 C 1.935,0 1.935,3 0,3 -1.935,3 -1.935,0 0,0" style="fill:#ba3125;fill-opacity:1;fill-rule:nonzero;stroke:none"/></g><g id="g78" transform="translate(16.5596,23.6553)"><path id="path80" d="M 0,0 C 1.935,0 1.935,3 0,3 -1.935,3 -1.935,0 0,0" style="fill:#737577;fill-opacity:1;fill-rule:nonzero;stroke:none"/></g><g id="g82" transform="translate(23.1646,22.583)"><path id="path84" d="M 0,0 C 1.935,0 1.935,3 0,3 -1.935,3 -1.935,0 0,0" style="fill:#737577;fill-opacity:1;fill-rule:nonzero;stroke:none"/></g><g id="g86" transform="translate(23.1646,16.2246)"><path id="path88" d="M 0,0 C 1.935,0 1.935,3 0,3 -1.935,3 -1.935,0 0,0" style="fill:#ba3125;fill-opacity:1;fill-rule:nonzero;stroke:none"/></g></g></g></g></svg>