<svg xmlns="http://www.w3.org/2000/svg" xmlns:svg="http://www.w3.org/2000/svg" id="svg2" width="37.5" height="37.5" version="1.1" xml:space="preserve"><metadata id="metadata8"/><defs id="defs6"><clipPath id="clipPath16"><path id="path18" d="M 0,30 30,30 30,0 0,0 0,30 z"/></clipPath><linearGradient id="linearGradient36" x1="0" x2="1" y1="0" y2="0" gradientTransform="matrix(16.349213,-9.2266693,-9.2266693,-16.349213,6.6845703,19.629883)" gradientUnits="userSpaceOnUse" spreadMethod="pad"><stop id="stop38" offset="0" style="stop-color:#dfe2f2;stop-opacity:1"/><stop id="stop40" offset=".908" style="stop-color:#00b0f0;stop-opacity:1"/><stop id="stop42" offset="1" style="stop-color:#00b0f0;stop-opacity:1"/></linearGradient><clipPath id="clipPath50"><path id="path52" d="M 0,30 30,30 30,0 0,0 0,30 z"/></clipPath><clipPath id="clipPath110"><path id="path112" d="M 0,30 30,30 30,0 0,0 0,30 z"/></clipPath><linearGradient id="linearGradient126" x1="0" x2="1" y1="0" y2="0" gradientTransform="matrix(19.740478,-11.140533,-11.140533,-19.740478,34.959961,17.853516)" gradientUnits="userSpaceOnUse" spreadMethod="pad"><stop id="stop128" offset="0" style="stop-color:#dfe2f2;stop-opacity:1"/><stop id="stop130" offset=".908" style="stop-color:#00b0f0;stop-opacity:1"/><stop id="stop132" offset="1" style="stop-color:#00b0f0;stop-opacity:1"/></linearGradient><clipPath id="clipPath140"><path id="path142" d="M 0,30 30,30 30,0 0,0 0,30 z"/></clipPath></defs><g id="g10" transform="matrix(1.25,0,0,-1.25,0,37.5)"><g id="g12"><g id="g14" clip-path="url(#clipPath16)"><g id="g20" transform="translate(-24.6357,-7.0825)"><path id="path22" d="m 0,0 c 6.081,1.937 11.074,-2.006 11.292,3.379 0.218,5.385 2.929,2.96 7.002,0 4.072,-2.959 7.328,-17.373 3.854,-20.914 -3.473,-3.54 -10.209,-5.506 -12.704,-1.109 -2.495,4.397 -1.411,6.299 -2.929,9.646 -1.52,3.349 -4.559,0.446 -8.034,0 C -4.994,-9.442 -6.08,-1.937 0,0" style="fill:#000;fill-opacity:1;fill-rule:nonzero;stroke:none"/></g></g></g><g id="g24"><g id="g26"><g id="g32"><g id="g34"><path id="path44" d="m 8.875,0 12.25,0 0,29.876 -12.25,0 0,-29.876 z" style="fill:url(#linearGradient36);stroke:none"/></g></g></g></g><g id="g46"><g id="g48" clip-path="url(#clipPath50)"><g id="g54" transform="translate(18.2949,14.666)"><path id="path56" d="M 0,0 z" style="fill:#bcd6f0;fill-opacity:1;fill-rule:nonzero;stroke:none"/></g><g id="g58" transform="translate(18.2949,14.666)"><path id="path60" d="M 0,0 0,0 z" style="fill:none;stroke:#3c4694;stroke-width:1;stroke-linecap:butt;stroke-linejoin:miter;stroke-miterlimit:10;stroke-opacity:1;stroke-dasharray:none"/></g><g id="g62" transform="translate(5.25,4.085)"><path id="path64" d="M 0,0 C 1.935,0 1.935,3 0,3 -1.935,3 -1.935,0 0,0" style="fill:#737577;fill-opacity:1;fill-rule:nonzero;stroke:none"/></g><g id="g66" transform="translate(6.5703,13.332)"><path id="path68" d="M 0,0 C 1.935,0 1.935,3 0,3 -1.935,3 -1.935,0 0,0" style="fill:#737577;fill-opacity:1;fill-rule:nonzero;stroke:none"/></g><g id="g70" transform="translate(11.8545,9.6982)"><path id="path72" d="M 0,0 C 1.935,0 1.935,3 0,3 -1.935,3 -1.935,0 0,0" style="fill:#ba3125;fill-opacity:1;fill-rule:nonzero;stroke:none"/></g><g id="g74" transform="translate(12.3506,19.2764)"><path id="path76" d="M 0,0 C 1.935,0 1.935,3 0,3 -1.935,3 -1.935,0 0,0" style="fill:#ba3125;fill-opacity:1;fill-rule:nonzero;stroke:none"/></g><g id="g78" transform="translate(18.2949,18.7822)"><path id="path80" d="M 0,0 C 1.935,0 1.935,3 0,3 -1.935,3 -1.935,0 0,0" style="fill:#ba3125;fill-opacity:1;fill-rule:nonzero;stroke:none"/></g><g id="g82" transform="translate(18.2949,13.166)"><path id="path84" d="M 0,0 C 1.935,0 1.935,3 0,3 -1.935,3 -1.935,0 0,0" style="fill:#ba3125;fill-opacity:1;fill-rule:nonzero;stroke:none"/></g><g id="g86" transform="translate(16.1484,24.3955)"><path id="path88" d="M 0,0 C 1.935,0 1.935,3 0,3 -1.935,3 -1.935,0 0,0" style="fill:#ba3125;fill-opacity:1;fill-rule:nonzero;stroke:none"/></g><g id="g90" transform="translate(23.7539,23.3232)"><path id="path92" d="M 0,0 C 1.935,0 1.935,3 0,3 -1.935,3 -1.935,0 0,0" style="fill:#737577;fill-opacity:1;fill-rule:nonzero;stroke:none"/></g><g id="g94" transform="translate(23.7539,16.9648)"><path id="path96" d="M 0,0 C 1.935,0 1.935,3 0,3 -1.935,3 -1.935,0 0,0" style="fill:#737577;fill-opacity:1;fill-rule:nonzero;stroke:none"/></g><g id="g98" transform="translate(8.875,29.8755)"><path id="path100" d="M 0,0 0,-29.875" style="fill:none;stroke:#3f4096;stroke-width:1;stroke-linecap:butt;stroke-linejoin:miter;stroke-miterlimit:10;stroke-opacity:1;stroke-dasharray:none"/></g><g id="g102" transform="translate(20.875,29.8755)"><path id="path104" d="M 0,0 0,-29.875" style="fill:none;stroke:#3f4096;stroke-width:1;stroke-linecap:butt;stroke-linejoin:miter;stroke-miterlimit:10;stroke-opacity:1;stroke-dasharray:none"/></g></g></g><g id="g106"><g id="g108" clip-path="url(#clipPath110)"><g id="g114"><g id="g116"><g id="g122"><g id="g124"><path id="path134" d="m 60,7.625 -30,0 0,9.125 30,0 0,-9.125 z" style="fill:url(#linearGradient126);stroke:none"/></g></g></g></g></g></g><g id="g136"><g id="g138" clip-path="url(#clipPath140)"><g id="g144" transform="translate(30,16.75)"><path id="path146" d="M 0,0 30,0" style="fill:none;stroke:#3f4096;stroke-width:1;stroke-linecap:butt;stroke-linejoin:miter;stroke-miterlimit:10;stroke-opacity:1;stroke-dasharray:none"/></g><g id="g148" transform="translate(30,7.625)"><path id="path150" d="M 0,0 30,0" style="fill:none;stroke:#3f4096;stroke-width:1;stroke-linecap:butt;stroke-linejoin:miter;stroke-miterlimit:10;stroke-opacity:1;stroke-dasharray:none"/></g></g></g></g></svg>