<svg xmlns="http://www.w3.org/2000/svg" xmlns:svg="http://www.w3.org/2000/svg" id="svg2" width="37.5" height="37.5" version="1.1" xml:space="preserve"><metadata id="metadata8"/><defs id="defs6"><clipPath id="clipPath16"><path id="path18" d="M 0,30 30,30 30,0 0,0 0,30 z"/></clipPath><clipPath id="clipPath24"><path id="path26" d="m 3.99609,27.4209 24.00391,0 0,-26.07813 -24.00391,0 0,26.07813 z"/></clipPath><clipPath id="clipPath52"><path id="path54" d="m 0,60 29.999,0 0,-30 L 0,30 0,60 z"/></clipPath></defs><g id="g10" transform="matrix(1.25,0,0,-1.25,0,37.5)"><g id="g12"><g id="g14" clip-path="url(#clipPath16)"><g id="g20"><g id="g28"><g id="g30" clip-path="url(#clipPath24)"><g id="g32" transform="translate(21.7646,18.7202)"><path id="path34" d="m 0,0 c 3.615,-1.126 6.235,-4.504 6.235,-8.487 0,-4.908 -3.983,-8.89 -8.89,-8.89 -4.848,0 -8.783,3.876 -8.878,8.7 0.842,-0.261 1.73,-0.403 2.655,-0.403 4.907,0 8.89,3.983 8.89,8.89 0,0.06 0,0.131 -0.012,0.19" style="fill:#ba3125;fill-opacity:1;fill-rule:nonzero;stroke:none"/></g><g id="g36" transform="translate(21.7646,18.7202)"><path id="path38" d="m 0,0 c -0.842,0.261 -1.73,0.403 -2.655,0.403 -4.908,0 -8.89,-3.983 -8.89,-8.89 0,-0.059 0,-0.131 0.012,-0.19 -3.615,1.126 -6.236,4.505 -6.236,8.487 0,4.908 3.984,8.891 8.891,8.891 C -4.03,8.701 -0.095,4.824 0,0" style="fill:#ba3125;fill-opacity:1;fill-rule:nonzero;stroke:none"/></g></g></g></g><g id="g40" transform="translate(21.7646,18.7202)"><path id="path42" d="m 0,0 c 3.615,-1.126 6.235,-4.504 6.235,-8.487 0,-4.908 -3.983,-8.89 -8.89,-8.89 -4.848,0 -8.783,3.876 -8.878,8.7 -0.012,0.059 -0.012,0.131 -0.012,0.19 0,4.907 3.982,8.89 8.89,8.89 C -1.73,0.403 -0.842,0.261 0,0 z" style="fill:none;stroke:#000;stroke-width:1;stroke-linecap:butt;stroke-linejoin:miter;stroke-miterlimit:10;stroke-opacity:1;stroke-dasharray:none"/></g><g id="g44" transform="translate(21.7646,18.7202)"><path id="path46" d="m 0,0 c 0.012,-0.059 0.012,-0.13 0.012,-0.19 0,-4.907 -3.983,-8.89 -8.89,-8.89 -0.925,0 -1.813,0.142 -2.655,0.403 -3.615,1.126 -6.236,4.505 -6.236,8.487 0,4.908 3.984,8.891 8.891,8.891 C -4.03,8.701 -0.095,4.824 0,0 z" style="fill:none;stroke:#000;stroke-width:1;stroke-linecap:butt;stroke-linejoin:miter;stroke-miterlimit:10;stroke-opacity:1;stroke-dasharray:none"/></g><g id="g48"><g id="g56"><g id="g58" clip-path="url(#clipPath52)"><g id="g60" transform="translate(15.6543,36)"><path id="path62" d="m 0,0 c 4.929,0 8.929,4 8.929,8.929 0,4.928 -4,8.928 -8.929,8.928 -4.928,0 -8.928,-4 -8.928,-8.928 C -8.928,4 -4.928,0 0,0 m 14.345,-6 -29.999,0 0,30 29.999,0 0,-30 z" style="fill:#ba3125;fill-opacity:1;fill-rule:nonzero;stroke:none"/></g></g></g></g></g></g></g></svg>